<?xml version="1.0" standalone="no"?>
<!DOCTYPE svg PUBLIC "-//W3C//DTD SVG 20010904//EN"
 "http://www.w3.org/TR/2001/REC-SVG-20010904/DTD/svg10.dtd">
<svg version="1.0" xmlns="http://www.w3.org/2000/svg"
 width="5964.000000pt" height="5964.000000pt" viewBox="0 0 5964.000000 5964.000000"
 preserveAspectRatio="xMidYMid meet">
<metadata>
Created by potrace 1.14, written by Peter Selinger 2001-2017
</metadata>
<g transform="translate(0.000000,5964.000000) scale(0.100000,-0.100000)"
fill="#000000" stroke="none">
<path d="M4784 34796 c-50 -58 -62 -74 -75 -98 -16 -29 -35 -48 -49 -48 -6 0
-8 -4 -5 -10 3 -5 2 -10 -3 -10 -5 0 -9 -6 -9 -12 0 -13 -81 -137 -108 -168
-8 -8 -14 -19 -16 -25 -1 -5 -14 -28 -29 -50 -34 -51 -115 -199 -111 -204 1
-2 -2 -7 -8 -10 -7 -5 -65 -118 -76 -151 -1 -3 -9 -22 -18 -42 -10 -21 -17
-42 -17 -48 0 -5 -5 -10 -11 -10 -5 0 -8 -4 -5 -8 2 -4 -2 -21 -9 -37 -16 -35
-63 -180 -70 -213 -2 -12 -6 -26 -9 -31 -3 -5 -9 -26 -12 -47 -3 -22 -7 -43
-8 -49 -1 -5 -4 -14 -6 -20 -3 -5 -5 -28 -5 -50 0 -22 -4 -43 -10 -47 -6 -5
-5 -8 2 -8 9 0 10 -7 5 -22 -11 -30 -8 -179 3 -197 6 -10 4 -12 -6 -6 -11 7
-12 6 -3 -6 5 -8 11 -31 13 -51 1 -21 11 -61 22 -90 11 -29 25 -66 31 -83 6
-16 19 -42 29 -56 10 -14 16 -29 12 -33 -3 -3 -1 -6 6 -6 7 0 10 -4 7 -9 -4
-5 -3 -11 1 -13 14 -6 67 -93 65 -105 -2 -8 3 -10 14 -6 11 4 15 2 11 -4 -4
-6 0 -14 9 -17 9 -3 12 -11 8 -18 -5 -8 -2 -9 9 -5 9 3 16 3 16 -1 -3 -21 3
-31 16 -26 11 5 13 2 8 -12 -4 -12 -3 -15 6 -10 7 4 26 -4 46 -21 64 -53 93
-73 104 -73 6 0 11 -4 11 -10 0 -5 6 -10 14 -10 8 0 16 -3 18 -7 3 -9 60 -38
161 -83 63 -27 71 -29 90 -15 12 8 31 15 44 15 12 0 26 6 30 13 4 8 33 27 63
43 30 16 57 32 58 37 2 4 9 7 16 7 7 0 21 9 31 20 10 11 27 22 38 26 12 4 30
17 40 30 10 13 23 24 30 24 6 0 2 -7 -9 -16 -20 -16 2 -8 24 9 11 8 11 12 0
18 -10 7 -9 9 5 9 9 0 17 5 17 10 0 6 5 10 11 10 8 0 8 -5 -1 -15 -7 -8 -9
-15 -4 -15 5 0 18 12 28 27 11 14 14 23 8 19 -19 -12 -14 3 9 27 12 12 18 16
14 8 -6 -10 -4 -12 4 -7 7 5 10 14 7 22 -3 8 -2 14 2 14 4 0 16 15 27 33 10
17 21 34 24 37 4 3 15 23 26 45 11 22 23 42 26 45 9 8 71 171 77 205 3 17 6
67 6 113 1 61 4 81 14 77 6 -2 12 -1 13 3 0 4 2 15 4 25 2 9 -1 15 -6 11 -5
-3 -7 -10 -4 -15 4 -5 2 -9 -4 -9 -13 0 -18 19 -13 47 2 13 9 20 16 17 6 -3 4
1 -6 8 -12 10 -13 19 -7 31 6 9 6 17 2 17 -4 0 -9 21 -10 48 -1 50 -6 78 -22
130 -5 18 -10 36 -11 40 0 4 -5 23 -10 42 -5 19 -10 40 -11 45 0 6 -6 19 -12
30 -6 11 -12 22 -12 25 -3 29 -30 100 -37 100 -5 0 -7 4 -4 8 2 4 -2 21 -9 37
-35 75 -67 152 -71 169 -2 11 -7 22 -12 25 -5 3 -27 40 -49 81 -76 142 -143
253 -155 258 -5 2 -8 10 -8 18 0 8 -4 14 -10 14 -5 0 -10 4 -10 10 0 8 -93
146 -118 176 -5 5 -14 20 -21 31 -6 12 -17 27 -24 35 -7 7 -23 28 -36 46 -12
17 -26 32 -31 32 -4 0 -21 -15 -36 -34z"/>
<path d="M35575 34122 c-2 -3 -19 -5 -37 -6 -18 -1 -39 -5 -45 -9 -7 -5 -13
-6 -13 -3 0 3 -18 -1 -40 -9 -22 -8 -44 -15 -48 -16 -23 -5 -113 -53 -130 -70
-12 -10 -24 -19 -26 -19 -3 0 -14 -7 -23 -14 -49 -41 -67 -57 -53 -50 8 5 1
-10 -16 -31 -30 -39 -64 -97 -65 -112 0 -5 -7 -15 -14 -23 -7 -8 -14 -18 -14
-22 -1 -5 -1 -9 -2 -10 -16 -53 -20 -144 -23 -529 -2 -206 -4 -378 -6 -384 -1
-5 -1 -14 0 -20 7 -35 3 -261 -5 -267 -7 -5 -7 -11 0 -15 12 -10 14 -103 2
-103 -4 0 -5 -5 -2 -11 11 -17 13 -59 3 -65 -4 -3 -5 -10 -2 -16 11 -17 10
-118 -1 -118 -7 0 -7 -3 0 -8 13 -9 13 -112 0 -112 -7 0 -7 -3 0 -8 6 -4 10
-20 10 -37 0 -16 -4 -33 -10 -37 -7 -5 -6 -8 0 -8 9 0 12 -42 5 -60 -1 -3 -1
-9 0 -15 5 -23 2 -143 -4 -154 -4 -6 -3 -11 1 -11 5 0 8 -22 8 -50 0 -27 -3
-50 -8 -50 -4 0 -5 -5 -1 -12 8 -12 14 -966 7 -981 -2 -4 -30 13 -61 38 -105
82 -116 90 -124 88 -4 -2 -8 1 -8 5 0 4 -22 21 -50 37 -27 16 -50 33 -50 37 0
4 -5 8 -10 8 -6 0 -27 11 -48 24 -85 56 -353 193 -412 211 -14 4 -30 11 -35
15 -6 5 -30 16 -55 25 -72 25 -254 87 -270 91 -122 31 -216 54 -238 58 -15 3
-36 7 -47 9 -30 7 -156 28 -185 31 -14 1 -31 6 -38 10 -7 4 -19 2 -27 -4 -8
-7 -15 -8 -15 -3 0 10 -6 12 -75 13 -25 1 -47 6 -51 11 -3 5 -10 7 -15 4 -17
-11 -49 -14 -54 -5 -3 5 -12 7 -20 4 -23 -9 -135 -10 -135 -1 0 5 -5 5 -10 2
-6 -4 -18 -1 -27 7 -11 8 -14 9 -10 1 9 -14 -70 -21 -150 -12 -31 3 -58 1 -64
-5 -9 -8 -10 -7 -4 3 6 10 4 12 -6 6 -22 -14 -60 -15 -52 -2 5 9 3 9 -8 1 -8
-6 -29 -11 -47 -10 -17 0 -32 -1 -32 -4 0 -3 -24 -6 -52 -6 -29 -1 -62 -4 -73
-7 -11 -2 -42 -8 -70 -11 -27 -4 -57 -9 -65 -11 -8 -3 -31 -7 -50 -10 -154
-22 -485 -120 -650 -191 -152 -67 -477 -238 -500 -263 -3 -4 -32 -24 -65 -45
-72 -47 -179 -127 -183 -138 -2 -4 -8 -8 -13 -8 -9 0 -55 -37 -110 -90 -14
-14 -33 -24 -40 -22 -8 3 -11 1 -7 -3 4 -4 -14 -25 -40 -47 -26 -23 -51 -47
-55 -55 -5 -7 -12 -11 -18 -8 -8 6 -13 -8 -10 -28 1 -5 -3 -6 -8 -3 -12 8 -33
-18 -23 -29 4 -5 1 -5 -5 -1 -7 4 -13 2 -13 -3 0 -6 -8 -11 -17 -12 -11 0 -13
-3 -5 -6 9 -3 3 -13 -16 -31 -24 -23 -99 -110 -137 -160 -5 -7 -17 -21 -26
-30 -27 -29 -161 -220 -159 -228 1 -4 -2 -10 -8 -13 -14 -9 -83 -121 -74 -121
4 0 2 -4 -4 -8 -21 -14 -148 -259 -200 -385 -14 -34 -29 -71 -33 -82 -5 -11
-14 -36 -21 -55 -7 -19 -16 -44 -22 -55 -5 -12 -10 -28 -12 -38 -1 -9 -5 -20
-9 -23 -4 -4 -7 -17 -7 -29 0 -11 -4 -25 -9 -30 -6 -6 -11 -21 -13 -35 -2 -14
-7 -31 -11 -37 -5 -7 -6 -13 -3 -13 3 0 1 -12 -5 -27 -11 -29 -19 -65 -22 -95
-1 -10 -5 -18 -10 -18 -4 0 -6 -3 -3 -8 2 -4 -1 -32 -8 -62 -7 -30 -14 -58
-15 -62 0 -5 -2 -10 -2 -13 -1 -3 -3 -14 -4 -25 -1 -11 -4 -23 -5 -27 -1 -5
-1 -18 0 -30 1 -13 -2 -23 -7 -23 -4 0 -8 -20 -7 -45 0 -25 -2 -45 -5 -45 -3
0 -7 -28 -9 -62 -2 -34 -8 -68 -14 -75 -6 -7 -6 -13 -1 -13 5 0 9 -36 9 -79
-1 -43 -4 -77 -8 -74 -5 2 -8 -3 -8 -11 0 -9 5 -16 11 -16 8 0 8 -5 -1 -15
-10 -12 -10 -15 1 -15 9 0 10 -3 3 -8 -13 -8 -14 -42 -2 -42 5 0 6 -5 3 -10
-14 -22 -15 -64 -3 -71 7 -5 8 -9 2 -9 -12 0 -12 -29 1 -49 5 -9 4 -12 -2 -8
-10 6 -12 -87 -2 -98 4 -3 3 -21 -1 -40 -4 -19 -6 -36 -3 -38 2 -3 6 -40 9
-83 2 -44 7 -95 10 -114 3 -19 6 -47 7 -62 1 -16 4 -28 7 -28 3 0 5 -12 6 -27
0 -34 11 -103 25 -163 5 -25 11 -56 13 -70 2 -14 6 -32 9 -40 5 -13 22 -84 31
-131 2 -8 6 -21 9 -29 8 -21 20 -72 22 -91 1 -9 6 -23 11 -30 5 -8 9 -16 9
-19 3 -17 46 -142 61 -175 10 -22 19 -46 20 -53 1 -7 12 -33 23 -58 12 -24 21
-47 22 -51 0 -5 7 -18 15 -30 8 -13 11 -23 7 -23 -5 0 -3 -4 2 -8 11 -7 39
-66 33 -68 -1 -1 4 -10 13 -20 9 -11 29 -44 44 -74 51 -98 79 -147 113 -194
17 -26 32 -50 32 -54 0 -4 14 -23 30 -42 16 -19 30 -40 30 -47 0 -6 3 -13 8
-15 4 -1 36 -41 72 -88 35 -47 77 -98 92 -115 15 -16 28 -36 28 -43 0 -7 11
-18 25 -24 14 -6 25 -15 25 -20 0 -5 20 -29 45 -52 24 -24 43 -45 41 -47 -2
-2 6 -13 17 -24 11 -11 16 -13 12 -5 -5 8 21 -15 58 -52 36 -36 68 -64 70 -61
3 2 14 -7 25 -21 11 -15 23 -26 27 -26 3 0 12 -6 19 -12 7 -7 28 -24 46 -38
18 -14 39 -31 46 -37 7 -7 17 -13 23 -13 5 0 14 -6 18 -12 10 -16 178 -128
191 -128 6 0 12 -3 14 -8 7 -17 249 -145 388 -205 55 -23 236 -87 249 -87 6 0
11 -5 11 -11 0 -5 4 -8 9 -5 4 3 46 -5 92 -19 243 -70 247 -70 784 -70 270 0
508 3 530 7 22 4 83 17 135 28 52 12 106 23 120 26 33 7 147 42 195 60 11 4
27 8 35 10 8 2 30 9 50 17 19 9 76 32 125 52 88 36 255 120 325 164 19 12 43
24 53 27 9 4 17 10 17 15 0 5 4 9 10 9 11 0 133 82 138 93 2 4 10 7 18 7 8 0
14 3 14 8 0 4 16 18 35 31 19 13 43 31 54 40 52 44 61 50 61 46 0 -3 17 10 38
30 20 19 53 50 72 67 19 18 39 33 45 33 5 1 9 6 8 12 -2 7 6 15 17 18 11 4 20
13 20 21 0 8 4 13 9 9 5 -3 12 4 16 15 4 11 11 18 16 15 5 -4 9 -2 9 3 0 6 26
37 58 70 31 33 67 72 79 88 13 15 25 25 28 22 10 -10 11 -148 1 -148 -6 0 -5
-5 1 -11 6 -6 8 -23 3 -42 -4 -18 -4 -41 0 -52 4 -11 4 -30 -1 -42 -5 -13 -5
-23 -1 -23 4 0 7 -37 8 -83 2 -131 6 -180 20 -214 7 -17 10 -34 6 -37 -3 -3 1
-6 8 -6 7 0 11 -3 7 -6 -10 -10 52 -121 91 -162 6 -7 12 -18 12 -23 0 -6 5 -7
10 -4 6 3 10 1 10 -6 0 -12 38 -49 50 -49 4 0 18 -9 31 -21 33 -29 104 -64
169 -83 48 -15 162 -30 198 -28 6 1 29 2 50 2 87 2 261 67 310 116 7 8 17 12
22 9 5 -3 12 0 16 6 5 8 3 9 -6 4 -9 -5 -11 -4 -6 3 4 7 13 12 20 12 14 0 49
39 54 60 2 8 12 21 23 31 10 9 19 20 19 24 0 4 9 19 19 34 11 15 29 54 41 86
24 66 27 125 34 685 2 151 5 277 6 280 1 3 1 10 0 15 -8 30 -5 111 4 117 8 5
8 8 1 8 -12 0 -12 70 -1 89 4 6 3 11 -2 11 -5 0 -7 12 -5 28 2 15 4 33 4 40
-1 14 -1 37 -1 55 1 6 -1 33 -2 60 -2 26 1 47 7 47 5 0 4 5 -3 12 -7 7 -8 17
-2 28 5 9 5 22 0 30 -4 7 -4 23 0 36 5 12 6 25 2 28 -10 10 -9 46 1 46 5 0 4
7 -3 15 -9 11 -9 15 -1 15 7 0 9 4 6 10 -10 16 -11 90 -2 90 5 0 5 6 -1 13 -6
7 -7 18 -2 27 4 7 5 23 1 34 -9 27 -7 78 2 94 5 6 4 12 -2 12 -6 0 -6 11 -1
29 4 16 6 32 2 35 -9 10 -9 56 1 56 4 0 5 6 0 13 -10 17 -11 97 -1 103 5 3 5
11 1 17 -10 16 -11 68 -2 88 5 9 5 20 1 23 -4 4 -8 149 -9 323 -1 174 -4 322
-8 331 -4 10 0 12 11 8 13 -5 14 -3 7 6 -14 19 -24 50 -14 44 5 -3 12 1 15 9
3 9 0 18 -7 20 -9 4 -12 45 -12 154 1 82 -2 148 -6 145 -8 -5 -6 16 3 31 3 6
6 96 6 201 -1 106 2 197 6 203 4 6 2 11 -4 11 -6 0 -9 4 -6 8 5 8 10 439 6
467 -1 6 -1 28 0 50 6 110 4 155 -5 159 -7 3 -7 5 0 5 6 1 9 43 8 108 -1 73 3
110 10 115 9 6 9 8 0 8 -8 0 -13 14 -13 36 0 24 4 33 12 28 8 -5 8 -3 2 7 -13
20 -13 192 0 201 8 6 8 8 0 8 -15 0 -16 110 -1 110 9 0 9 2 1 8 -14 8 -13 70
0 91 6 9 5 12 -1 8 -13 -8 -12 101 1 122 6 9 5 12 -2 8 -7 -5 -9 21 -7 83 2
64 -1 88 -9 83 -6 -3 -2 4 9 17 11 13 15 20 8 16 -15 -8 -13 45 2 56 6 5 5 8
-2 8 -7 0 -10 7 -6 17 4 11 3 14 -5 9 -13 -8 -6 20 9 40 5 6 6 14 2 18 -12 11
-11 56 1 56 8 0 8 2 0 8 -12 8 -13 70 -1 88 3 6 3 14 -1 18 -11 12 -9 76 3 76
7 0 6 3 -1 8 -12 8 -13 130 -1 149 4 6 3 14 -3 18 -10 6 -9 40 3 51 4 4 2 13
-4 21 -8 9 -8 17 0 26 6 8 8 17 4 21 -12 12 -10 116 1 116 7 0 6 3 -1 8 -12 8
-12 36 0 48 4 4 2 13 -4 20 -10 13 -9 51 4 71 4 6 3 14 -3 18 -5 3 -10 11 -10
16 0 6 5 7 12 3 7 -5 8 -3 2 7 -12 20 -12 99 0 99 8 0 8 3 1 8 -14 9 -14 214
0 224 7 5 6 8 -1 8 -14 0 -13 60 1 60 6 0 6 3 -1 8 -13 9 -14 173 -1 165 6 -4
7 -1 1 8 -13 21 -13 189 0 189 8 0 8 3 1 8 -7 5 -12 167 -13 482 -2 540 -5
671 -15 687 -4 7 -3 14 3 18 6 4 7 11 4 17 -4 6 -9 31 -11 56 -2 25 -8 51 -14
59 -7 7 -9 13 -5 13 8 0 -41 87 -73 130 -14 19 -25 38 -23 43 1 4 -9 12 -23
19 -13 6 -22 15 -19 20 3 4 -3 11 -13 15 -10 4 -40 22 -68 41 -46 32 -100 58
-135 68 -64 16 -88 20 -107 19 -13 -1 -23 1 -23 4 0 7 -128 10 -135 3z m-410
-3582 c3 -5 1 -10 -4 -10 -6 0 -11 5 -11 10 0 6 2 10 4 10 3 0 8 -4 11 -10z
m-2372 -263 c7 11 36 11 54 0 6 -4 14 -3 17 2 7 10 196 9 213 -2 6 -4 14 -4
16 1 8 11 116 2 222 -18 28 -6 61 -12 75 -14 14 -3 25 -5 25 -6 0 -1 9 -3 20
-5 153 -25 430 -136 595 -239 115 -72 231 -157 276 -204 19 -20 34 -32 34 -29
0 3 35 -30 78 -75 42 -45 88 -93 102 -107 48 -48 190 -240 190 -256 0 -3 5
-11 11 -18 11 -13 52 -78 54 -87 4 -15 19 -46 25 -50 9 -7 50 -98 50 -110 0
-5 5 -10 12 -10 6 0 9 -3 6 -6 -4 -3 5 -30 18 -60 13 -30 33 -84 45 -121 12
-38 26 -74 32 -80 5 -7 7 -13 4 -13 -2 0 4 -33 15 -72 11 -40 21 -82 23 -93 1
-11 3 -20 4 -20 2 0 4 -11 7 -25 2 -14 9 -49 14 -78 5 -29 9 -56 9 -60 -1 -4
0 -9 1 -12 5 -10 10 -98 15 -247 2 -83 5 -155 6 -160 1 -4 0 -10 -1 -13 -1 -3
-3 -52 -5 -110 -1 -58 -4 -105 -5 -105 -1 0 -2 -22 -3 -50 -1 -27 -4 -54 -8
-60 -3 -5 -5 -25 -4 -42 1 -18 -3 -33 -7 -33 -5 0 -6 -4 -3 -10 3 -5 -1 -37
-10 -71 -9 -34 -14 -64 -11 -67 3 -3 1 -11 -5 -18 -5 -7 -12 -25 -15 -41 -3
-15 -12 -47 -20 -71 -7 -23 -14 -49 -14 -57 0 -8 -4 -15 -8 -15 -4 0 -8 -8 -9
-18 -3 -45 -157 -382 -183 -402 -3 -3 -12 -20 -19 -37 -8 -18 -17 -33 -22 -33
-5 0 -9 -6 -9 -13 0 -8 -9 -22 -20 -32 -11 -10 -20 -24 -20 -32 0 -7 -4 -13
-8 -13 -4 0 -15 -12 -24 -27 -9 -16 -25 -38 -35 -50 -10 -11 -32 -38 -50 -60
-81 -98 -267 -273 -361 -340 -37 -26 -68 -51 -70 -55 -2 -5 -9 -8 -15 -8 -6 0
-18 -6 -26 -14 -59 -52 -385 -203 -501 -231 -8 -3 -39 -11 -67 -19 -29 -8 -53
-12 -53 -10 0 3 -8 1 -17 -5 -10 -5 -40 -12 -67 -15 -27 -4 -53 -9 -57 -12 -4
-2 -37 -6 -73 -8 -36 -2 -69 -6 -73 -9 -8 -4 -34 -5 -160 -7 -29 -1 -57 1 -63
5 -5 3 -10 2 -10 -2 0 -5 -17 -7 -37 -5 -21 1 -63 3 -93 3 -30 1 -59 3 -64 6
-4 3 -36 7 -70 9 -52 3 -110 13 -236 40 -178 38 -475 164 -622 265 -32 21 -62
39 -67 39 -5 0 -11 3 -13 8 -1 4 -30 28 -64 53 -33 26 -72 56 -85 68 -47 43
-215 213 -249 253 -19 22 -40 45 -45 52 -6 6 -26 34 -45 61 -19 28 -37 52 -40
55 -28 26 -190 321 -190 346 0 8 -4 14 -10 14 -5 0 -10 8 -10 18 0 10 -7 28
-16 40 -8 12 -12 22 -9 22 3 0 0 10 -7 23 -7 12 -11 28 -10 35 2 6 -3 12 -9
12 -7 0 -10 3 -7 6 4 3 -4 36 -17 72 -14 37 -26 79 -29 94 -2 15 -7 31 -10 36
-3 5 -8 24 -11 43 -3 19 -8 41 -11 50 -2 10 -6 30 -9 45 -2 16 -7 47 -10 69
-4 22 -9 65 -10 95 -2 30 -5 55 -5 55 -3 0 -8 150 -9 255 -1 92 6 315 9 315 1
0 3 14 5 30 8 77 19 143 31 195 8 33 13 59 20 95 3 16 10 35 16 42 6 7 8 13 5
13 -4 0 0 18 8 41 8 23 12 45 9 50 -3 5 -1 9 5 9 5 0 12 14 16 31 4 17 13 42
20 56 8 15 12 30 9 35 -3 4 0 8 5 8 6 0 11 5 11 10 0 6 7 27 17 48 9 20 17 39
18 42 0 3 9 21 20 40 10 19 20 41 21 49 2 8 6 17 11 20 4 3 9 13 11 21 2 8 8
17 13 18 5 2 9 8 9 14 0 14 100 172 112 176 4 2 8 9 8 15 0 7 14 26 30 44 17
18 30 37 30 42 0 6 4 11 9 11 6 0 18 14 28 30 9 17 23 30 31 30 7 0 11 4 8 8
-3 5 12 24 32 44 20 19 51 51 68 70 16 19 37 32 45 30 7 -3 11 -1 7 3 -4 4 3
17 15 29 45 45 155 136 165 136 5 0 13 7 16 16 4 9 9 14 12 11 4 -3 15 3 27
13 56 53 332 198 447 236 28 9 53 20 55 25 3 4 12 6 20 2 8 -3 15 1 15 8 0 7
3 10 6 6 3 -3 17 -2 30 3 14 6 37 12 52 15 37 8 57 13 60 15 4 4 88 21 127 26
11 1 20 3 20 4 0 1 14 4 30 5 136 14 161 17 164 21 3 2 8 -1 12 -7 4 -7 9 -7
12 -2z m2675 -62 c-3 -3 -9 2 -12 12 -6 14 -5 15 5 6 7 -7 10 -15 7 -18z m642
-1169 c0 -3 -4 -8 -10 -11 -5 -3 -10 -1 -10 4 0 6 5 11 10 11 6 0 10 -2 10 -4z"/>
<path d="M12984 33970 c-5 -5 -27 -12 -48 -15 -22 -2 -64 -12 -95 -22 -31 -9
-58 -17 -61 -18 -38 -11 -188 -101 -212 -128 -9 -10 -20 -18 -25 -19 -4 0 -7
-4 -5 -9 1 -5 -1 -8 -5 -6 -5 1 -9 -1 -10 -6 -2 -4 -19 -21 -38 -38 -19 -17
-35 -36 -35 -43 -1 -6 -14 -27 -30 -46 -17 -19 -30 -38 -30 -42 0 -4 -13 -29
-28 -55 -28 -48 -56 -128 -68 -193 -4 -19 -11 -40 -16 -47 -5 -7 -5 -14 2 -18
7 -4 7 -12 0 -24 -5 -10 -7 -21 -4 -24 9 -9 10 -125 1 -120 -5 3 -5 -3 1 -13
5 -11 15 -44 21 -74 21 -102 72 -209 146 -305 16 -22 35 -43 40 -47 6 -4 10
-13 10 -20 1 -7 6 -12 12 -11 7 2 15 -6 18 -17 4 -11 10 -20 15 -20 5 0 33
-18 62 -40 60 -46 193 -113 253 -129 199 -51 455 -20 588 71 15 11 27 17 27
14 0 -6 7 0 89 67 54 45 101 96 101 109 0 5 5 6 10 3 6 -3 10 1 10 9 0 8 6 19
13 23 15 10 72 95 70 105 -2 3 4 12 12 18 8 7 15 16 15 21 0 4 5 20 12 36 28
70 49 172 52 258 1 28 6 56 10 64 6 10 5 12 -2 7 -8 -5 -12 2 -13 21 0 15 -2
35 -4 43 -2 8 -6 31 -10 50 -9 52 -27 113 -37 126 -5 7 -11 21 -13 33 -2 11
-25 53 -52 92 -26 40 -55 82 -63 95 -8 13 -25 29 -37 35 -13 7 -22 20 -21 28
2 9 -3 15 -9 14 -7 -2 -13 2 -13 8 0 5 -4 7 -10 4 -5 -3 -10 -2 -10 2 0 5 -35
32 -77 59 -82 53 -182 97 -249 110 -21 3 -48 9 -59 11 -11 3 -38 7 -59 9 -22
2 -44 5 -50 7 -6 2 -20 1 -31 -3 -11 -4 -27 -4 -36 1 -9 4 -20 4 -25 -1z"/>
<path d="M25475 33970 c3 -6 -2 -10 -12 -11 -105 -5 -224 -49 -343 -128 -47
-31 -87 -59 -88 -64 -2 -4 -8 -5 -12 -2 -5 3 -12 0 -16 -6 -4 -8 -3 -9 4 -5
25 15 10 -6 -30 -44 -24 -22 -38 -40 -33 -40 6 0 5 -3 -1 -8 -31 -20 -128
-190 -138 -240 -1 -9 -6 -24 -9 -32 -4 -8 -8 -29 -10 -45 -2 -17 -6 -35 -9
-40 -7 -13 -7 -227 0 -239 3 -6 7 -24 8 -42 1 -18 5 -37 9 -43 3 -6 9 -24 11
-39 3 -15 12 -37 20 -49 8 -13 12 -23 9 -23 -2 0 4 -15 14 -34 11 -18 25 -44
33 -57 7 -13 15 -26 18 -29 3 -3 17 -21 31 -40 15 -19 36 -46 48 -59 11 -13
21 -28 21 -33 0 -4 7 -8 16 -8 8 0 12 -4 9 -10 -3 -5 0 -10 7 -10 7 0 25 -10
38 -23 37 -34 150 -101 206 -121 27 -10 56 -20 64 -23 53 -20 300 -40 300 -24
0 4 12 6 28 7 68 2 160 30 245 73 55 28 156 104 151 113 -3 4 2 8 10 8 8 0 19
8 25 18 5 9 12 16 15 15 3 -2 6 -1 6 2 0 5 34 47 63 77 9 10 17 23 17 28 0 6
4 10 9 10 11 0 101 179 101 201 0 9 3 19 7 23 4 3 8 14 9 24 1 9 5 42 10 72 9
64 9 157 -1 215 -3 22 -8 51 -10 65 -7 54 -60 178 -103 245 -24 39 -48 72 -52
75 -4 3 -13 16 -19 28 -7 13 -15 21 -18 18 -7 -7 -43 38 -43 54 0 6 -4 8 -10
5 -5 -3 -25 8 -42 24 -18 17 -39 31 -45 31 -7 0 -13 4 -13 9 0 5 -8 11 -17 15
-10 3 -43 19 -73 36 -30 17 -57 30 -60 30 -3 0 -27 7 -55 15 -27 8 -64 17 -80
18 -17 2 -35 6 -40 9 -6 3 -34 6 -64 7 -29 1 -58 4 -62 7 -5 3 -9 1 -9 -5 0
-7 -8 -7 -26 -1 -16 7 -23 7 -19 0z"/>
<path d="M40648 33974 c-2 -1 -29 -5 -59 -8 -157 -16 -283 -63 -394 -150 -21
-17 -42 -31 -45 -31 -7 0 -90 -84 -90 -91 0 -4 -8 -14 -18 -23 -57 -52 -140
-225 -158 -331 -1 -8 -5 -26 -8 -40 -4 -14 -6 -68 -6 -120 0 -86 2 -115 13
-160 2 -8 9 -41 17 -72 7 -32 16 -58 20 -58 4 0 12 -18 19 -40 6 -22 16 -40
21 -40 6 0 10 -5 10 -11 0 -13 58 -99 82 -120 10 -9 18 -19 18 -23 0 -11 57
-66 68 -66 6 0 12 -3 14 -8 6 -14 83 -69 138 -98 130 -70 249 -98 384 -91 55
4 117 9 136 12 183 31 389 170 498 335 20 30 40 57 44 58 5 2 6 8 2 13 -3 5 0
9 5 9 6 0 10 3 9 8 -1 4 9 30 21 57 13 28 24 57 26 65 2 8 6 26 9 40 20 86 24
182 12 290 -9 89 -11 98 -19 106 -4 4 -7 15 -7 25 0 40 -96 222 -127 242 -7 4
-13 12 -13 17 0 13 -106 120 -119 120 -5 0 -11 4 -13 9 -4 11 -139 101 -152
101 -6 0 -23 6 -37 14 -38 20 -99 34 -169 41 -19 2 -37 4 -40 5 -3 1 -8 2 -11
2 -3 0 -22 3 -42 7 -20 5 -37 7 -39 5z"/>
<path d="M959 33776 c-9 -6 -14 -17 -11 -25 3 -10 0 -11 -9 -5 -11 6 -12 5 -3
-7 14 -19 15 -57 2 -65 -7 -5 -8 -2 -3 6 6 9 4 11 -5 5 -10 -6 -9 -11 4 -21 9
-6 13 -15 8 -18 -5 -3 -8 -20 -6 -37 3 -24 1 -30 -11 -26 -9 4 -12 1 -8 -8 3
-8 9 -13 13 -10 5 3 7 -3 5 -12 -2 -10 -4 -40 -4 -66 -1 -30 -5 -46 -11 -42
-6 4 -7 11 -4 17 4 7 2 8 -4 4 -12 -7 -5 -36 8 -36 4 0 6 -10 5 -22 -4 -33 -4
-34 -15 -18 -6 9 -10 10 -10 3 0 -7 8 -17 18 -22 9 -6 13 -11 7 -11 -11 0 -12
-50 -1 -68 4 -7 2 -12 -5 -12 -8 0 -8 -4 1 -15 7 -8 8 -15 3 -15 -6 0 -9 -20
-8 -45 1 -27 -3 -45 -9 -45 -6 0 -5 -4 3 -9 12 -8 12 -14 -4 -38 -14 -21 -14
-25 -3 -15 13 10 17 10 21 -2 4 -9 2 -18 -4 -22 -7 -4 -7 -10 0 -18 7 -9 7
-16 -1 -24 -9 -9 -9 -12 2 -12 9 0 8 -5 -6 -16 -10 -8 -13 -12 -6 -9 9 5 13 1
12 -11 -1 -11 -1 -21 0 -24 8 -22 7 -46 -3 -52 -9 -6 -9 -8 1 -8 6 0 12 -5 12
-11 0 -5 -4 -8 -9 -4 -5 3 -13 1 -16 -5 -4 -6 -1 -9 6 -8 8 2 15 -13 20 -37 5
-31 3 -42 -10 -52 -14 -12 -14 -12 2 -7 15 5 17 2 13 -20 -3 -14 0 -26 5 -26
5 0 9 -7 9 -16 0 -14 -2 -15 -17 -3 -17 13 -17 12 -2 -6 21 -26 31 -55 19 -55
-6 0 -10 -5 -10 -11 0 -5 5 -7 11 -4 6 4 9 1 8 -6 -1 -8 1 -21 4 -29 3 -8 11
-42 18 -75 12 -61 53 -186 89 -269 11 -26 20 -48 20 -51 1 -2 16 -30 35 -62
19 -32 43 -75 55 -95 11 -21 25 -38 31 -38 6 0 8 -9 4 -20 -5 -16 -2 -20 14
-20 12 0 21 -5 21 -11 0 -5 -6 -7 -12 -3 -8 4 -10 3 -5 -2 5 -5 12 -9 16 -9 4
0 15 -8 25 -17 11 -12 13 -18 5 -18 -18 0 -4 -11 17 -14 10 -2 20 -9 22 -17 3
-11 1 -11 -7 1 -7 10 -11 11 -11 3 0 -7 10 -17 21 -24 16 -8 20 -8 14 1 -6 9
-2 9 14 1 11 -7 21 -14 21 -17 0 -3 -6 -2 -12 2 -7 4 -9 3 -5 -1 4 -5 14 -10
22 -11 7 -1 33 -15 57 -31 81 -55 217 -115 230 -102 2 1 14 -4 28 -11 35 -20
63 -23 54 -8 -6 9 -3 9 9 -1 9 -7 14 -18 11 -25 -3 -6 0 -4 8 4 9 10 28 15 58
14 25 -1 65 -3 90 -4 35 -1 40 -3 25 -10 -19 -8 -19 -9 -1 -9 10 -1 25 7 32
17 7 9 14 12 14 6 0 -8 13 -9 40 -4 25 5 43 3 47 -3 3 -6 1 -7 -5 -3 -17 10
-15 1 4 -14 8 -8 14 -9 13 -4 -5 27 2 33 25 24 17 -6 26 -5 30 3 3 9 5 9 5 0
1 -7 6 -13 12 -13 5 0 7 5 3 12 -5 8 0 9 14 6 15 -4 22 -2 22 8 0 8 5 14 11
14 5 0 7 -5 3 -12 -5 -7 -3 -8 5 -4 7 5 10 10 7 13 -7 7 26 63 37 63 4 0 5 5
2 10 -3 6 -1 10 4 10 10 0 131 237 135 264 1 6 4 16 7 21 4 6 10 24 14 40 5
17 9 32 10 35 25 88 37 283 18 313 -3 6 -1 7 5 3 7 -4 12 -2 12 3 0 6 -4 11
-9 11 -5 0 -11 19 -14 43 -7 67 -35 146 -83 240 -13 26 -21 47 -17 47 5 0 3 4
-3 8 -6 4 -30 36 -55 71 -24 35 -51 73 -59 85 -14 20 -14 20 4 6 17 -13 19
-13 14 0 -2 8 -13 17 -24 18 -10 2 -23 9 -29 14 -7 8 -6 9 3 4 6 -4 12 -2 12
3 0 6 -5 11 -11 11 -19 0 -129 114 -130 135 0 11 -3 15 -6 8 -3 -10 -7 -10
-18 0 -7 7 -11 15 -8 20 2 4 -3 7 -11 7 -9 0 -16 5 -16 11 0 5 -6 7 -12 3 -9
-5 -8 -2 1 9 12 15 12 17 -3 11 -10 -4 -26 3 -43 20 -14 14 -30 26 -36 26 -6
0 -7 3 -4 6 4 4 15 1 24 -7 16 -13 17 -12 4 4 -7 9 -22 17 -32 17 -11 0 -19 5
-19 10 0 6 -7 10 -15 10 -13 0 -68 37 -128 86 -9 8 -20 14 -23 14 -3 0 -30 16
-60 35 -30 19 -56 35 -58 35 -3 0 -39 20 -80 45 -42 25 -80 45 -84 45 -4 0
-23 10 -42 22 -19 12 -37 23 -40 24 -3 1 -15 5 -27 9 -13 4 -20 11 -17 16 3 5
-2 9 -11 9 -14 0 -277 107 -315 129 -10 5 -22 4 -31 -3z"/>
<path d="M8610 33761 c0 -5 -12 -12 -27 -16 -15 -3 -48 -16 -72 -27 -25 -11
-50 -21 -56 -22 -5 -1 -30 -11 -55 -23 -25 -12 -74 -35 -110 -51 -69 -31 -225
-107 -250 -122 -170 -98 -246 -145 -252 -154 -5 -6 -8 -7 -8 -1 0 6 -3 6 -8
-1 -14 -21 -128 -94 -147 -94 -10 0 -16 -3 -12 -6 8 -8 -54 -75 -63 -69 -15 9
-41 -7 -36 -22 3 -8 1 -11 -4 -8 -11 7 -51 -31 -42 -40 4 -4 0 -5 -9 -3 -15 3
-69 -51 -69 -68 0 -5 7 0 15 10 8 11 15 15 15 10 0 -17 -22 -33 -38 -27 -10 4
-13 2 -8 -5 4 -7 1 -12 -9 -12 -11 0 -15 -5 -11 -16 4 -10 2 -13 -6 -8 -8 5
-9 2 -4 -11 5 -15 4 -16 -8 -6 -12 10 -14 9 -12 -6 2 -10 0 -20 -4 -23 -16
-12 -103 -146 -135 -208 -50 -98 -76 -172 -79 -225 0 -15 -6 -25 -11 -23 -7 2
-10 -25 -9 -76 2 -69 0 -78 -14 -73 -12 4 -11 1 4 -16 11 -14 13 -19 4 -14
-12 7 -13 6 -4 -6 6 -8 14 -36 17 -64 3 -27 8 -61 12 -75 4 -14 8 -32 10 -40
3 -19 11 -40 41 -112 13 -32 20 -58 16 -58 -4 0 -2 -4 3 -8 6 -4 17 -20 25
-37 26 -52 113 -190 121 -193 5 -2 9 -12 9 -23 0 -10 5 -19 11 -19 5 0 7 -5 3
-12 -5 -8 3 -9 29 -5 20 3 39 1 42 -4 4 -5 13 -5 25 1 27 15 34 12 19 -7 -13
-14 -11 -14 20 1 18 10 30 13 27 8 -4 -6 -2 -13 4 -17 5 -3 10 1 10 10 0 12 4
14 19 5 14 -7 21 -6 24 3 3 7 6 5 6 -5 1 -9 6 -20 13 -24 8 -5 9 -2 5 9 -5 13
0 17 21 18 15 0 39 2 54 3 14 1 24 -2 22 -6 -3 -4 0 -8 5 -8 6 0 11 5 11 10 0
15 16 12 34 -6 9 -8 16 -12 16 -7 0 5 -5 14 -11 20 -9 9 -7 11 7 8 11 -2 19
-4 19 -6 0 -1 10 -3 22 -4 12 -1 20 2 17 7 -3 4 -11 5 -17 2 -7 -4 -9 -4 -5 1
12 13 70 17 62 4 -3 -6 5 -3 19 6 14 9 34 18 44 20 10 2 18 4 18 5 0 1 9 3 20
5 31 6 141 62 198 100 29 19 58 35 65 35 8 0 10 5 6 12 -5 7 -2 9 8 5 10 -3
15 0 14 11 0 9 6 17 14 18 28 2 48 15 54 37 4 18 1 17 -20 -8 l-26 -30 22 32
c12 19 26 30 35 27 11 -5 35 22 41 46 7 33 72 136 82 132 3 -2 8 2 11 9 2 6
-1 9 -6 6 -5 -4 5 22 23 57 18 35 44 97 59 137 14 41 32 77 38 81 9 6 9 8 -1
8 -10 0 -10 5 -2 20 6 10 10 23 9 27 -4 19 14 72 22 67 5 -3 6 1 3 9 -3 8 0
35 7 58 7 24 11 55 10 69 -1 20 0 22 9 10 9 -12 11 -10 9 10 -2 42 0 51 14 45
6 -4 4 0 -5 7 -15 13 -15 15 0 26 9 7 11 10 5 7 -16 -7 -16 -4 -3 29 7 19 6
26 -3 26 -9 0 -9 2 0 8 6 4 10 22 8 40 -1 17 0 32 4 32 3 0 6 55 5 123 0 97 3
126 15 141 9 11 11 16 4 13 -6 -4 -14 -3 -18 3 -3 5 0 10 7 10 8 0 9 3 3 8
-16 11 -18 71 -3 89 8 11 9 14 1 10 -9 -6 -12 9 -10 57 1 35 0 63 -3 61 -3 -2
-6 5 -6 15 0 10 4 16 8 14 4 -3 8 -1 8 5 0 5 -4 12 -8 15 -4 3 -7 24 -7 48 1
24 -2 51 -8 62 -6 13 -6 16 2 12 12 -8 15 6 4 18 -12 12 -12 40 0 48 9 6 9 8
-1 8 -8 0 -11 9 -8 25 3 13 0 27 -5 31 -5 3 -7 14 -4 25 4 11 2 19 -4 19 -6 0
-11 -4 -11 -9z m-1156 -670 c3 -5 -1 -11 -9 -14 -9 -4 -12 -1 -8 9 6 16 10 17
17 5z m877 -1128 c-12 -20 -14 -14 -5 12 4 9 9 14 11 11 3 -2 0 -13 -6 -23z"/>
<path d="M1970 33240 c0 -5 5 -10 11 -10 5 0 7 5 4 10 -3 6 -8 10 -11 10 -2 0
-4 -4 -4 -10z"/>
<path d="M895 33220 c3 -5 8 -10 11 -10 2 0 4 5 4 10 0 6 -5 10 -11 10 -5 0
-7 -4 -4 -10z"/>
<path d="M7561 33209 c-7 -12 -10 -23 -8 -26 3 -3 11 5 17 17 15 28 8 35 -9 9z"/>
<path d="M2090 33133 c0 -8 70 -76 75 -72 2 2 -14 21 -36 41 -21 21 -39 35
-39 31z"/>
<path d="M4410 32612 c0 -12 19 -26 26 -19 2 2 -2 10 -11 17 -9 8 -15 8 -15 2z"/>
<path d="M1815 31660 c-3 -5 -1 -10 4 -10 6 0 11 5 11 10 0 6 -2 10 -4 10 -3
0 -8 -4 -11 -10z"/>
<path d="M20545 31391 c-13 -12 -77 -17 -92 -8 -6 4 -15 3 -18 -3 -5 -8 -12
-7 -23 2 -9 8 -13 8 -9 2 5 -8 -4 -12 -27 -12 -18 0 -57 -5 -87 -11 -30 -5
-70 -13 -89 -15 -19 -3 -46 -8 -60 -11 -14 -3 -38 -8 -54 -10 -76 -14 -223
-59 -356 -108 -69 -26 -288 -125 -305 -137 -5 -5 -37 -23 -70 -41 -88 -48
-259 -163 -344 -233 -41 -33 -72 -54 -67 -46 4 8 1 6 -8 -5 -29 -37 -37 -45
-44 -42 -4 2 -23 -12 -42 -32 -19 -19 -28 -30 -20 -26 13 8 13 6 1 -8 -7 -9
-17 -15 -21 -12 -4 3 -11 -2 -14 -11 -3 -8 -11 -12 -17 -8 -8 4 -9 3 -5 -4 4
-7 2 -12 -3 -12 -6 0 -11 -7 -11 -16 0 -8 -4 -12 -10 -9 -5 3 -10 1 -10 -5 0
-6 -5 -8 -10 -5 -6 4 -9 1 -8 -7 2 -7 -4 -12 -12 -10 -8 2 -12 0 -8 -4 8 -7
-9 -34 -21 -34 -3 0 -7 33 -7 73 -2 164 -8 263 -17 275 -6 7 -7 15 -4 18 3 3
-1 27 -9 52 -8 26 -17 55 -19 65 -6 25 -56 119 -75 138 -8 9 -21 26 -29 37 -8
12 -18 19 -22 17 -4 -3 -9 2 -13 10 -3 8 -12 15 -21 15 -8 0 -15 4 -15 9 0 13
-115 61 -181 75 -33 6 -58 14 -55 16 2 3 -16 3 -41 1 -31 -2 -48 1 -54 10 -5
8 -9 9 -9 3 0 -6 -12 -10 -27 -8 -16 1 -28 3 -28 4 0 1 -8 3 -18 5 -9 2 -15
-1 -11 -6 3 -5 -12 -9 -33 -10 -21 0 -45 -2 -53 -4 -8 -2 -26 -5 -40 -8 -54
-11 -142 -47 -185 -76 -25 -17 -49 -31 -54 -31 -14 0 -108 -135 -129 -187 -12
-28 -27 -83 -34 -122 -7 -39 -16 -71 -21 -71 -5 0 -4 -7 3 -15 8 -9 8 -15 2
-15 -7 0 -8 -10 -2 -30 5 -16 5 -43 0 -59 -4 -16 -6 -31 -4 -33 4 -5 5 -71 2
-146 -2 -30 0 -56 4 -58 4 -3 4 -12 1 -20 -9 -23 -10 -525 -2 -550 4 -12 5
-25 1 -29 -11 -11 -8 -135 3 -135 7 0 6 -3 0 -8 -13 -9 -14 -1662 -1 -1662 5
0 2 -8 -5 -17 -12 -14 -12 -16 0 -8 11 6 12 5 5 -6 -12 -20 -11 -282 1 -291 7
-5 7 -8 0 -8 -11 0 -13 -119 -2 -137 4 -5 3 -13 0 -17 -11 -11 -9 -396 2 -396
7 0 7 -3 0 -8 -12 -8 -14 -222 -2 -222 5 0 5 -5 1 -12 -10 -15 -11 -259 -1
-265 4 -2 4 -9 1 -15 -9 -15 -7 -305 2 -320 4 -7 3 -8 -4 -4 -14 9 -14 9 -3
-29 4 -17 5 -39 1 -50 -4 -11 -4 -30 1 -42 5 -15 5 -23 -2 -23 -6 0 -7 -4 -4
-10 3 -5 6 -34 5 -62 0 -29 0 -69 0 -88 5 -195 3 -710 -3 -710 -4 0 -2 -9 5
-20 11 -17 10 -22 -2 -30 -10 -6 -11 -10 -2 -10 7 0 12 -13 12 -32 0 -40 40
-168 52 -168 5 0 7 -4 4 -8 -3 -5 13 -32 35 -60 21 -29 39 -57 39 -62 0 -6 11
-15 25 -20 14 -5 25 -14 25 -19 0 -7 147 -86 160 -85 3 0 25 -5 49 -13 24 -7
57 -13 73 -13 16 0 28 -5 28 -12 0 -8 3 -9 8 -3 8 12 122 14 122 2 0 -5 5 -5
11 -1 6 4 23 8 38 9 172 17 328 93 392 192 19 29 37 52 42 53 4 0 7 6 7 13 0
6 10 32 22 57 11 25 22 50 22 55 1 6 7 33 14 60 9 38 13 325 15 1205 2 636 6
1161 10 1167 4 6 4 14 -1 17 -4 2 -6 40 -5 83 3 99 3 87 0 163 -1 36 2 68 8
72 6 5 7 8 0 8 -11 0 -12 280 -1 299 4 6 2 11 -5 11 -8 0 -8 4 1 15 7 8 9 15
4 15 -5 0 -9 20 -9 45 0 25 4 45 8 45 5 0 5 4 2 10 -3 5 -6 31 -5 57 1 48 1
72 -1 96 -3 64 10 638 16 646 3 6 8 21 11 34 2 12 6 31 8 42 8 39 78 218 103
264 42 74 94 154 122 185 59 65 207 210 240 234 20 15 45 35 55 45 11 9 26 17
33 17 7 0 13 5 13 10 0 6 5 10 11 10 6 0 29 13 52 29 42 28 202 107 267 131
19 7 40 16 45 20 9 6 27 12 80 26 6 1 30 9 54 18 24 9 47 13 52 10 5 -3 9 0 9
6 0 7 7 10 15 7 8 -4 17 -2 20 3 3 5 27 12 53 16 52 9 60 10 67 14 3 1 13 3
23 5 9 1 35 5 57 10 22 4 49 9 60 12 11 2 52 6 90 9 39 3 72 8 74 10 2 2 10
-1 18 -7 8 -7 13 -8 13 -1 0 8 62 13 163 13 6 0 39 -1 72 -1 33 0 67 0 75 0 8
1 32 -1 53 -2 21 -2 41 0 44 4 2 5 9 5 15 2 6 -4 47 -8 92 -10 45 -2 81 -4 81
-5 0 0 25 -3 55 -4 30 -2 55 -4 55 -5 0 -1 20 -3 44 -5 25 -3 52 -7 60 -10 8
-3 35 -8 60 -11 26 -3 62 -9 81 -14 19 -4 42 -8 50 -8 8 0 31 -3 50 -7 19 -4
45 -9 57 -10 11 -2 30 -6 42 -10 13 -4 21 -2 21 6 0 8 4 8 13 1 16 -13 159 -4
174 11 3 4 13 7 20 7 21 0 119 48 134 66 7 8 18 13 26 10 12 -5 17 6 14 26 0
4 7 4 17 1 9 -3 14 -3 10 2 -4 4 8 28 28 52 19 23 32 43 29 43 -4 0 2 15 12
33 17 28 33 76 50 157 13 57 3 181 -17 219 -5 9 -15 31 -22 49 -7 17 -16 32
-20 32 -5 0 -8 6 -8 13 0 8 -9 22 -20 32 -11 10 -20 25 -20 33 0 9 -3 12 -7 9
-3 -4 -17 9 -30 28 -13 19 -28 35 -32 35 -5 0 -38 20 -75 45 -94 65 -271 149
-331 158 -11 1 -25 6 -31 9 -10 6 -40 14 -89 23 -11 2 -45 8 -75 14 -63 12
-98 17 -190 27 -36 3 -71 11 -77 16 -9 7 -17 7 -26 -1 -8 -6 -17 -8 -20 -5 -3
4 -54 7 -112 7 -61 0 -101 3 -93 8 9 6 9 9 1 9 -6 0 -15 -5 -19 -11 -4 -8 -9
-7 -15 2 -6 10 -9 11 -9 2 0 -7 -8 -13 -17 -13 -15 0 -16 2 -3 10 9 6 10 10 3
10 -6 0 -15 -5 -18 -10 -4 -6 -11 -8 -16 -4 -5 3 -16 0 -24 -6 -10 -8 -15 -9
-15 -2 0 6 -13 9 -30 7 -18 -3 -28 0 -25 5 8 13 2 13 -10 1z"/>
<path d="M48030 31371 c0 -4 -35 -7 -77 -7 -43 1 -87 -1 -99 -5 -11 -4 -27 -3
-34 1 -8 5 -22 4 -32 -1 -13 -7 -18 -6 -18 3 0 10 -2 10 -8 1 -4 -7 -25 -12
-45 -11 -20 1 -40 -2 -43 -5 -4 -3 -16 -2 -27 4 -14 8 -18 8 -13 0 7 -11 -8
-13 -109 -15 -25 -1 -45 -4 -45 -8 0 -5 -3 -7 -7 -6 -5 1 -28 -2 -53 -6 -25
-4 -56 -9 -70 -12 -14 -2 -68 -13 -120 -24 -52 -12 -106 -23 -120 -26 -14 -3
-27 -9 -28 -15 -2 -5 -8 -7 -13 -4 -5 3 -39 -4 -76 -15 -38 -12 -75 -23 -83
-25 -8 -2 -46 -16 -85 -30 -38 -15 -83 -31 -100 -37 -16 -6 -34 -15 -40 -19
-5 -5 -15 -9 -22 -9 -17 0 -282 -128 -303 -146 -8 -7 -19 -14 -25 -15 -5 -1
-27 -13 -48 -26 -21 -13 -49 -29 -63 -35 -13 -6 -24 -15 -24 -20 0 -4 -5 -8
-11 -8 -9 0 -111 -66 -146 -95 -28 -23 -40 -32 -73 -55 -19 -13 -39 -30 -43
-37 -4 -7 -13 -13 -19 -13 -6 0 -21 -11 -33 -24 -12 -13 -41 -36 -64 -50 -22
-14 -41 -31 -41 -37 0 -5 -5 -7 -10 -4 -6 4 -9 3 -8 -2 4 -12 -44 -63 -54 -57
-5 3 -7 0 -6 -8 2 -7 -1 -12 -7 -11 -5 0 -16 -5 -23 -13 -7 -8 -10 -14 -6 -14
4 0 -3 -11 -16 -25 -12 -13 -28 -22 -34 -18 -6 3 -8 3 -4 -1 3 -4 -14 -27 -38
-51 -24 -24 -44 -51 -44 -59 0 -9 -4 -16 -8 -16 -4 0 -26 -24 -47 -52 -22 -29
-45 -57 -51 -63 -23 -22 -133 -182 -199 -290 -27 -44 -54 -83 -60 -87 -5 -4
-6 -8 -2 -8 5 0 0 -12 -11 -27 -19 -28 -29 -51 -30 -67 0 -5 -4 -12 -10 -15
-8 -5 -82 -156 -82 -167 0 -2 -9 -23 -19 -47 -19 -43 -33 -78 -35 -87 -1 -3
-4 -9 -7 -15 -3 -5 -12 -31 -20 -57 -7 -27 -18 -48 -23 -48 -5 0 -7 -3 -3 -6
3 -3 1 -18 -5 -33 -5 -14 -12 -36 -14 -49 -3 -13 -11 -42 -19 -65 -15 -48 -37
-125 -41 -147 -1 -8 -10 -51 -19 -95 -9 -44 -18 -89 -20 -100 -2 -11 -8 -49
-14 -85 -5 -36 -13 -85 -16 -110 -3 -25 -8 -63 -12 -85 -3 -22 -7 -56 -7 -75
-1 -19 -5 -41 -9 -47 -5 -7 -4 -13 0 -13 5 0 6 -29 2 -65 -7 -75 -3 -470 6
-565 16 -155 39 -304 70 -455 13 -60 21 -113 19 -117 -3 -5 0 -8 6 -8 7 0 10
-6 7 -14 -3 -8 -3 -17 1 -20 3 -4 7 -12 8 -19 2 -10 20 -72 38 -132 2 -5 6
-18 10 -27 4 -9 8 -22 10 -30 1 -7 5 -19 9 -25 5 -7 5 -17 2 -23 -3 -5 -2 -10
4 -10 5 0 13 -14 16 -32 4 -18 11 -39 16 -48 14 -24 32 -74 31 -82 -1 -5 3 -8
8 -8 5 0 9 -3 9 -7 -1 -5 0 -11 1 -15 1 -5 3 -11 4 -15 4 -17 109 -222 152
-298 24 -44 50 -90 56 -102 6 -13 15 -23 20 -23 4 0 8 -5 8 -10 0 -12 41 -73
53 -78 4 -2 7 -9 7 -15 0 -7 10 -24 23 -39 12 -14 41 -52 64 -85 23 -32 54
-70 68 -85 14 -16 24 -28 21 -28 -5 0 5 -11 72 -83 17 -20 32 -40 32 -47 0 -6
5 -8 10 -5 6 3 10 -1 10 -9 0 -8 13 -23 29 -32 17 -10 28 -21 26 -24 -2 -4 7
-13 20 -20 14 -7 25 -19 25 -27 0 -7 3 -13 8 -13 4 0 26 -17 49 -37 120 -106
175 -150 323 -253 47 -32 90 -63 95 -67 6 -5 12 -9 15 -9 5 0 27 -14 90 -53
77 -48 349 -182 420 -206 3 -1 16 -6 30 -12 14 -6 54 -20 90 -33 36 -12 72
-25 80 -28 8 -3 20 -6 25 -8 6 -1 58 -16 116 -32 58 -17 152 -39 210 -51 103
-20 122 -24 209 -38 57 -10 1081 -10 1135 -1 22 4 56 10 75 12 141 21 417 91
570 146 47 17 91 32 98 32 6 1 12 5 12 10 0 4 6 8 14 8 14 0 105 38 169 71 21
10 44 19 52 19 8 0 15 4 15 8 0 5 20 17 45 28 25 10 45 22 45 27 0 4 5 5 10 2
6 -3 10 -2 10 2 0 5 17 16 38 26 42 20 59 30 122 72 25 16 48 34 52 40 5 7 8
7 8 0 0 -6 3 -6 8 1 4 5 36 30 72 55 36 24 76 54 90 67 14 12 43 35 65 50 22
15 42 30 43 35 2 4 7 5 12 2 5 -3 11 4 15 15 3 11 10 20 14 20 5 0 20 11 35
25 14 13 26 22 26 19 0 -10 26 21 33 39 4 10 11 15 17 12 5 -3 10 1 10 9 0 9
5 16 12 16 13 0 58 48 58 62 0 4 7 8 16 8 8 0 12 5 9 10 -3 6 1 10 9 10 8 0
17 8 20 18 3 9 19 31 34 49 26 28 96 112 114 138 4 5 18 24 31 40 123 159 286
444 376 655 18 41 36 84 41 95 8 19 64 178 88 253 6 17 9 32 6 32 -3 0 0 8 5
18 6 11 12 30 15 43 3 13 9 39 15 57 5 17 8 32 5 32 -3 0 -1 8 5 18 5 9 11 36
15 60 3 24 8 47 10 51 3 4 6 24 8 44 1 21 5 37 8 37 5 0 9 35 13 117 1 18 4
33 7 33 6 0 10 39 13 122 1 43 6 58 17 58 9 0 11 3 4 10 -14 14 -5 163 10 172
7 5 7 8 0 8 -6 0 -10 25 -10 60 0 33 3 60 8 60 4 0 3 11 -2 25 -7 18 -6 25 3
25 7 0 8 3 2 8 -6 4 -10 57 -10 122 0 63 -2 120 -5 125 -9 19 -8 35 2 35 7 0
7 5 -1 13 -6 8 -8 17 -4 20 3 4 1 12 -5 20 -7 8 -7 18 -2 27 5 8 6 18 3 23 -5
9 -10 35 -17 102 -3 22 -5 40 -6 40 -1 0 -3 16 -5 35 -2 19 -4 35 -5 35 -1 0
-3 14 -5 30 -1 17 -3 30 -5 30 -1 0 -4 14 -6 30 -3 17 -12 62 -20 100 -8 39
-17 79 -19 90 -2 11 -11 47 -20 80 -9 33 -20 74 -24 90 -15 55 -81 244 -106
300 -13 31 -24 57 -25 60 -8 39 -158 337 -202 399 -4 6 -36 54 -70 106 -34 52
-71 107 -82 122 -12 14 -31 39 -43 55 -12 16 -34 42 -48 57 -14 15 -25 30 -25
34 0 4 -14 21 -30 39 -17 18 -30 39 -30 48 0 9 -4 14 -8 11 -10 -6 -118 104
-114 116 2 7 -11 11 -28 10 -3 0 -14 12 -25 28 -11 16 -30 34 -42 41 -12 7
-20 16 -17 20 2 4 -5 13 -17 19 -11 6 -28 18 -37 25 -137 112 -181 145 -191
145 -7 0 -9 5 -6 10 3 6 2 10 -3 10 -6 0 -52 29 -103 64 -52 35 -107 71 -124
80 -16 9 -57 32 -90 51 -146 85 -475 230 -565 250 -8 2 -35 10 -60 18 -46 16
-235 65 -280 73 -14 2 -47 9 -75 14 -95 18 -182 32 -212 33 -7 0 -13 3 -13 7
0 4 -14 4 -31 2 -20 -3 -34 0 -40 9 -7 11 -9 11 -9 1 0 -8 -5 -10 -12 -6 -7 4
-27 7 -46 6 -19 -2 -40 2 -48 9 -11 9 -18 8 -29 -1 -9 -8 -15 -8 -15 -2 0 7
-10 8 -30 2 -16 -5 -32 -5 -34 -2 -6 9 -139 8 -154 -2 -7 -4 -15 -1 -18 8 -6
17 -24 22 -24 7z m-176 -1092 c36 13 326 13 326 0 0 -8 4 -9 13 0 8 6 16 9 18
6 3 -2 41 -7 84 -11 130 -10 139 -11 165 -18 14 -3 36 -8 50 -10 14 -3 25 -5
25 -6 0 -1 11 -3 25 -5 63 -9 255 -69 340 -107 151 -67 354 -182 372 -211 4
-7 8 -7 8 -2 0 7 3 7 8 0 4 -6 32 -30 62 -55 116 -94 287 -265 346 -345 16
-22 34 -46 41 -52 6 -7 21 -29 34 -50 13 -21 26 -40 30 -43 4 -3 16 -22 28
-42 11 -21 30 -54 41 -74 22 -39 93 -176 95 -184 3 -10 17 -46 33 -85 10 -21
17 -42 17 -46 0 -4 3 -11 8 -15 4 -4 7 -18 7 -30 0 -13 4 -25 8 -28 5 -3 15
-31 22 -63 7 -32 17 -63 22 -69 5 -7 8 -16 6 -20 -1 -5 6 -43 15 -84 10 -41
19 -86 21 -100 3 -14 5 -25 6 -25 3 0 10 -57 14 -116 2 -31 6 -60 8 -65 3 -5
4 -24 3 -42 -1 -18 2 -35 7 -38 4 -3 3 -14 -3 -25 -7 -14 -7 -24 0 -32 6 -8 6
-18 1 -27 -5 -8 -6 -19 -2 -24 9 -16 9 -148 0 -168 -5 -10 -4 -19 2 -23 6 -4
7 -11 3 -18 -4 -6 -8 -49 -9 -96 -3 -92 -12 -226 -14 -226 -2 0 -10 -35 -15
-70 -3 -16 -12 -63 -22 -105 -9 -41 -16 -78 -15 -82 1 -5 -2 -8 -7 -8 -6 0 -8
-9 -6 -20 2 -11 0 -22 -4 -25 -5 -2 -12 -22 -16 -42 -4 -21 -13 -51 -20 -68
-7 -16 -23 -56 -34 -87 -43 -120 -185 -391 -230 -440 -9 -9 -32 -40 -51 -69
-19 -28 -60 -77 -90 -107 -30 -31 -72 -76 -92 -100 -21 -24 -38 -40 -38 -36 0
4 -13 -6 -28 -22 -151 -154 -413 -316 -657 -407 -97 -36 -255 -80 -262 -73 -4
3 -11 2 -17 -4 -17 -13 -114 -29 -216 -36 -30 -1 -55 -4 -55 -5 0 -3 -212 -12
-230 -9 -5 0 -56 1 -112 1 -67 0 -103 4 -103 11 0 7 -4 7 -13 -1 -8 -6 -16 -9
-18 -6 -3 2 -34 7 -69 11 -36 3 -68 8 -71 10 -3 1 -28 6 -55 10 -27 3 -53 9
-59 12 -5 3 -18 7 -30 8 -38 5 -195 54 -287 90 -104 42 -259 120 -324 165 -23
16 -45 29 -48 29 -15 0 -172 128 -254 207 -51 49 -95 87 -97 84 -3 -2 -5 1 -5
7 0 6 -17 28 -38 49 -57 58 -164 200 -196 261 -8 15 -23 38 -35 51 -11 13 -18
28 -15 32 3 5 1 9 -5 9 -5 0 -15 16 -21 35 -6 19 -16 35 -21 35 -5 0 -8 3 -7
8 1 7 -52 128 -72 164 -6 10 -10 22 -10 27 0 5 -8 26 -17 47 -9 22 -17 41 -18
44 -1 3 -5 19 -10 35 -4 17 -10 35 -14 40 -3 6 -6 15 -6 20 -1 6 -4 17 -7 25
-9 25 -27 93 -33 130 -3 19 -8 43 -11 52 -10 32 -22 112 -29 187 -3 29 -8 57
-11 62 -3 5 1 9 8 9 8 0 9 3 3 8 -13 8 -14 31 -15 222 0 211 3 310 9 310 3 0
6 11 6 25 0 14 -4 25 -8 25 -5 0 -5 4 -2 10 6 9 12 54 19 131 2 20 6 41 9 46
3 4 8 27 12 51 7 49 59 241 80 293 8 20 11 39 8 43 -4 3 -1 6 5 6 7 0 11 3 11
8 -1 4 0 10 1 15 1 4 3 10 5 15 3 13 22 55 59 135 20 43 36 81 36 83 0 3 7 12
15 21 8 8 13 19 10 24 -4 5 -1 9 4 9 6 0 11 6 11 13 0 6 11 25 25 41 14 16 25
33 25 38 0 8 75 123 90 138 3 3 21 25 40 50 61 80 235 260 252 260 4 0 8 6 8
13 0 10 33 38 49 41 3 1 16 12 31 26 40 38 69 60 80 60 6 0 10 4 10 8 0 5 19
19 43 32 23 13 45 27 48 32 5 8 252 134 304 155 41 17 147 54 165 58 8 2 28 8
43 14 16 6 33 9 38 5 5 -3 9 0 9 7 0 7 3 10 6 6 3 -3 25 0 48 7 23 7 50 12 59
10 9 -1 17 1 17 5 0 4 10 7 23 8 30 0 110 14 119 19 5 3 8 0 8 -6 0 -8 6 -8
20 0 11 6 20 8 20 5 0 -3 8 -2 18 4 9 5 21 6 26 1 5 -5 18 -5 30 -1z"/>
<path d="M56975 31370 c2 -4 -36 -7 -86 -8 -50 0 -93 -3 -96 -6 -3 -3 -12 -1
-19 5 -8 7 -14 7 -19 -1 -5 -8 -11 -7 -23 2 -10 8 -13 9 -9 1 5 -8 -10 -11
-55 -12 -33 0 -64 -4 -67 -8 -3 -4 -19 -8 -36 -8 -16 1 -55 -3 -85 -7 -30 -5
-68 -11 -85 -13 -40 -5 -272 -54 -310 -65 -91 -27 -332 -105 -345 -111 -8 -5
-44 -20 -79 -34 -67 -28 -245 -117 -296 -150 -96 -60 -197 -130 -220 -151 -29
-27 -66 -49 -77 -46 -4 1 -5 -5 -2 -12 3 -8 -3 -17 -15 -21 -11 -3 -23 -15
-26 -25 -3 -11 -9 -19 -13 -17 -4 1 -17 -8 -29 -20 -13 -13 -21 -23 -18 -23 9
0 -50 -55 -60 -55 -5 -1 -9 -6 -7 -13 1 -7 -4 -12 -12 -12 -8 0 -18 -5 -22
-12 -5 -7 -2 -8 7 -3 8 4 5 -2 -6 -13 -34 -36 -45 -51 -45 -62 0 -5 -4 -10 -9
-10 -9 0 -92 -135 -128 -210 -39 -81 -84 -202 -98 -264 -2 -12 -9 -41 -16 -66
-13 -53 -16 -72 -18 -123 -1 -26 -5 -36 -13 -31 -7 5 -8 3 -3 -6 4 -7 7 -45 5
-84 -2 -65 -2 -231 0 -231 1 0 3 -31 6 -70 2 -38 7 -79 9 -90 3 -11 9 -40 14
-65 23 -109 112 -350 133 -358 4 -2 8 -10 8 -17 0 -8 18 -41 40 -74 22 -33 40
-63 40 -66 0 -3 5 -11 10 -18 6 -7 22 -25 36 -42 14 -16 32 -42 42 -57 9 -16
20 -28 25 -28 4 0 5 -5 2 -11 -4 -6 1 -13 11 -16 11 -2 33 -22 49 -43 17 -22
38 -42 48 -45 9 -4 15 -11 11 -16 -3 -6 3 -13 15 -16 11 -3 18 -9 15 -14 -3
-5 2 -9 11 -9 9 0 13 -4 10 -10 -3 -5 -1 -10 6 -10 6 0 39 -22 73 -48 59 -46
189 -135 231 -158 11 -6 47 -26 80 -44 33 -18 64 -37 69 -41 6 -5 18 -9 28 -9
10 0 18 -4 18 -9 0 -5 10 -12 23 -16 31 -10 28 -9 76 -33 25 -12 51 -22 58
-22 7 0 13 -5 13 -12 0 -6 3 -8 6 -5 4 3 16 1 28 -5 11 -7 24 -13 29 -14 4 -1
9 -3 12 -4 3 -1 9 -3 14 -4 5 0 13 -4 17 -8 4 -5 16 -8 26 -8 10 0 18 -4 18
-8 0 -5 6 -9 13 -10 24 -2 70 -17 100 -33 10 -5 22 -7 27 -4 6 4 10 1 10 -6 0
-7 3 -10 6 -6 4 3 19 0 35 -9 16 -8 30 -14 31 -13 2 1 21 -4 43 -10 22 -6 42
-10 45 -10 3 0 19 -5 35 -11 25 -10 76 -25 155 -46 8 -2 33 -8 55 -14 22 -6
55 -13 74 -15 19 -3 40 -10 46 -15 7 -5 14 -8 16 -5 3 2 28 -2 57 -9 29 -8 52
-12 52 -9 0 3 6 0 13 -6 8 -6 17 -8 20 -5 3 3 11 2 19 -2 7 -4 31 -10 53 -12
22 -2 42 -7 45 -10 3 -4 14 -7 25 -8 26 -1 52 -6 200 -39 39 -9 79 -18 90 -20
11 -3 43 -9 70 -16 28 -6 56 -12 63 -15 7 -2 14 -4 17 -5 2 0 37 -10 77 -21
40 -11 84 -22 98 -25 14 -2 34 -8 45 -13 11 -4 40 -14 65 -21 25 -7 49 -16 54
-21 6 -4 20 -8 32 -8 13 0 25 -4 28 -9 3 -5 18 -12 33 -16 62 -15 257 -113
338 -169 201 -139 343 -331 370 -502 7 -42 10 -158 5 -174 0 -3 -2 -25 -4 -50
-6 -98 -52 -208 -121 -295 -39 -49 -156 -165 -166 -165 -4 0 -14 -6 -21 -13
-7 -7 -40 -29 -74 -49 -178 -108 -451 -189 -685 -202 -31 -2 -62 -7 -68 -10
-6 -4 -11 -2 -11 5 0 8 -4 8 -12 1 -15 -11 -538 -14 -538 -3 0 4 -17 6 -37 6
-21 -1 -58 2 -83 6 -25 4 -63 10 -85 14 -124 19 -354 85 -495 142 -101 41
-298 139 -321 159 -8 8 -21 14 -28 14 -6 0 -24 11 -39 25 -15 14 -32 25 -39
25 -7 0 -13 5 -13 10 0 6 -6 10 -12 10 -7 0 -26 13 -43 28 -16 16 -37 32 -47
38 -9 5 -50 42 -92 82 -41 39 -80 72 -86 72 -6 0 -8 5 -5 10 3 6 1 10 -4 10
-10 0 -19 6 -79 58 -15 12 -42 28 -59 34 -18 7 -33 15 -33 19 0 5 -66 28 -102
35 -5 1 -9 2 -10 4 -17 13 -211 20 -258 8 -14 -3 -42 -13 -63 -21 -21 -9 -41
-17 -45 -18 -32 -10 -62 -25 -62 -30 0 -4 -11 -10 -25 -13 -14 -4 -25 -11 -25
-16 0 -6 -4 -10 -10 -10 -11 0 -33 -17 -95 -72 -23 -21 -48 -38 -55 -38 -7 0
-10 -3 -7 -6 4 -4 -6 -23 -22 -43 -24 -31 -82 -127 -80 -134 0 -1 -5 -15 -11
-31 -6 -16 -9 -35 -6 -42 3 -7 0 -14 -5 -16 -27 -9 -19 -229 12 -303 7 -16 13
-36 15 -44 1 -8 6 -17 11 -20 4 -3 21 -26 37 -50 16 -25 38 -55 50 -67 11 -12
30 -33 41 -47 11 -14 23 -23 27 -21 4 3 9 -5 13 -16 4 -11 11 -18 16 -15 5 4
9 1 9 -5 0 -6 5 -8 10 -5 6 3 10 2 10 -2 0 -5 26 -28 58 -53 31 -24 59 -48 60
-52 2 -4 10 -8 17 -8 7 0 15 -3 17 -7 5 -11 127 -93 138 -93 6 0 10 -4 10 -10
0 -5 7 -10 15 -10 8 0 15 -4 15 -9 0 -5 8 -11 18 -14 9 -3 42 -20 72 -38 52
-30 209 -112 220 -115 6 -1 65 -27 138 -60 29 -13 55 -24 58 -24 2 0 21 -7 42
-16 20 -10 44 -18 52 -20 8 -2 23 -7 35 -13 66 -32 474 -148 585 -167 28 -5
92 -17 100 -19 3 -1 39 -7 80 -14 75 -14 99 -17 133 -20 11 -1 16 -6 11 -13
-5 -10 -4 -10 5 -2 8 8 25 9 49 3 51 -11 1166 -10 1222 1 25 6 68 13 95 16 28
3 53 8 56 10 4 2 24 6 45 10 65 9 274 63 359 91 44 15 82 28 85 28 3 1 22 9
44 18 21 9 41 17 45 17 3 0 42 18 85 40 44 21 84 37 88 34 4 -3 8 -1 8 5 0 5
21 19 48 32 26 12 50 27 54 33 4 6 8 7 8 3 0 -4 15 3 33 17 19 15 37 26 41 26
8 0 157 104 192 135 7 6 26 21 44 35 18 14 38 30 45 37 7 7 15 9 19 6 3 -4 6
2 6 13 0 14 2 16 9 6 6 -10 10 -7 15 12 4 15 11 24 16 21 6 -3 10 0 10 7 0 7
12 24 27 38 15 14 23 19 19 13 -4 -7 -5 -13 -2 -13 2 0 14 16 26 35 12 19 37
54 57 78 19 23 41 50 49 60 8 9 14 21 14 26 0 5 4 11 8 13 5 2 26 32 48 68 21
36 41 67 44 70 5 5 55 106 85 174 9 21 30 77 46 125 26 74 40 126 75 276 10
45 13 512 4 570 -5 28 -12 68 -15 90 -8 46 -27 112 -61 208 -13 37 -20 67 -16
67 4 0 3 4 -3 8 -9 6 -68 119 -69 132 -1 9 -93 153 -108 170 -8 8 -32 38 -54
65 -21 28 -52 63 -69 79 -16 16 -21 23 -10 15 18 -13 19 -13 6 4 -7 9 -19 17
-25 17 -16 1 -51 32 -59 53 -4 10 -11 16 -16 12 -6 -3 -13 1 -18 9 -4 8 -37
36 -73 62 -36 27 -66 52 -68 56 -2 5 -9 8 -16 8 -7 0 -22 9 -34 20 -12 12 -22
17 -22 13 0 -4 -4 -3 -8 3 -4 7 -21 20 -39 30 -181 107 -325 180 -473 238 -52
21 -104 42 -115 47 -33 14 -269 89 -282 89 -7 0 -13 5 -13 12 0 6 -3 9 -6 6
-3 -4 -20 -2 -37 3 -18 6 -43 12 -57 15 -14 2 -36 9 -50 14 -20 7 -335 85
-430 106 -88 20 -187 41 -222 49 -13 2 -54 11 -93 20 -38 8 -79 17 -90 19 -11
2 -49 12 -85 21 -36 9 -72 19 -80 20 -55 13 -147 37 -160 42 -20 8 -42 14 -60
17 -9 1 -20 5 -25 8 -6 3 -30 11 -55 17 -25 7 -54 16 -65 21 -11 5 -47 18 -80
30 -33 11 -67 24 -75 27 -8 3 -17 7 -20 8 -3 1 -22 9 -42 18 -79 35 -113 49
-117 47 -2 -1 -7 2 -10 7 -3 5 -36 27 -73 48 -38 22 -68 43 -68 47 0 4 -6 8
-13 8 -17 0 -59 44 -50 53 3 4 1 7 -5 7 -45 0 -154 179 -177 290 -18 81 -25
212 -13 227 5 7 5 13 0 17 -15 9 16 124 49 186 30 56 127 164 189 212 84 63
339 172 430 183 8 1 25 5 37 9 41 13 120 28 166 30 15 0 27 4 27 9 0 4 9 3 20
-3 15 -8 20 -8 20 1 0 6 6 9 14 6 8 -3 16 -3 19 0 3 2 35 6 72 8 37 2 69 6 72
9 3 3 14 1 24 -4 10 -6 20 -6 23 -2 3 5 20 7 38 5 18 -2 40 -4 48 -3 82 2 121
1 130 -5 5 -3 10 -1 10 5 0 6 5 8 12 4 7 -4 30 -9 53 -10 22 -1 70 -3 108 -5
37 -2 67 -6 67 -9 0 -3 17 -5 38 -5 20 0 53 -3 72 -7 19 -5 55 -11 78 -14 24
-3 55 -9 68 -14 13 -5 24 -7 24 -5 0 2 12 0 28 -6 15 -6 38 -12 52 -14 23 -4
127 -37 160 -52 8 -3 17 -7 20 -8 66 -22 288 -141 310 -165 3 -3 32 -27 65
-52 33 -26 79 -65 103 -87 23 -23 47 -41 52 -41 6 0 9 -3 8 -7 -2 -5 1 -9 6
-10 5 -1 12 -5 15 -10 9 -13 118 -86 166 -110 66 -34 175 -76 175 -68 0 2 11
0 25 -5 34 -13 126 -23 207 -24 138 0 255 46 350 139 17 17 28 23 23 15 -15
-27 2 -6 38 45 18 28 41 64 50 81 21 41 44 144 40 176 -2 15 1 30 7 33 7 4 7
11 2 18 -5 7 -12 28 -15 47 -11 66 -16 82 -37 117 -11 19 -20 40 -20 48 0 7
-3 15 -7 17 -16 7 -74 89 -69 97 3 4 -6 13 -19 19 -14 7 -25 18 -25 27 0 8 -4
15 -10 15 -5 0 -10 7 -10 16 0 8 -4 12 -10 9 -5 -3 -10 -2 -10 3 0 10 -76 92
-85 92 -12 0 -34 28 -28 34 4 3 -1 6 -10 6 -10 0 -17 6 -17 14 0 8 -9 18 -20
21 -11 4 -18 11 -14 16 3 5 1 8 -4 7 -10 -3 -102 62 -102 72 0 3 -16 14 -35
24 -19 11 -35 23 -35 28 0 4 -6 8 -14 8 -8 0 -16 3 -18 8 -11 25 -284 181
-428 245 -82 37 -287 115 -320 122 -8 2 -16 4 -17 5 -2 2 -7 4 -13 5 -5 1 -11
3 -12 5 -2 1 -10 3 -18 5 -8 2 -51 13 -95 25 -83 22 -103 27 -145 35 -14 3
-36 7 -50 10 -14 3 -37 7 -52 10 -15 2 -35 6 -45 9 -10 2 -38 7 -63 10 -25 3
-56 8 -70 11 -13 2 -56 7 -95 11 -38 3 -76 11 -82 16 -9 7 -13 7 -13 -1 0 -7
-5 -9 -12 -5 -7 4 -27 7 -45 6 -18 -2 -33 2 -33 8 0 7 -6 8 -19 1 -10 -6 -21
-7 -25 -4 -3 4 -32 6 -64 5 -31 -1 -61 -2 -67 -2 -5 -1 -25 1 -43 3 -18 3 -35
0 -38 -5 -4 -6 -9 -5 -14 2 -4 7 -20 14 -34 15 -14 2 -24 0 -21 -5z"/>
<path d="M13020 31320 c0 -5 -13 -10 -28 -10 -85 0 -250 -65 -313 -123 -10
-10 -19 -15 -19 -12 0 3 -9 -4 -20 -15 -11 -11 -19 -21 -18 -22 2 -2 -11 -18
-29 -36 -65 -68 -123 -210 -123 -301 0 -40 -3 -52 -10 -41 -6 9 -10 10 -10 3
0 -6 4 -14 8 -17 4 -2 7 -109 5 -238 -1 -128 -2 -602 -2 -1053 0 -451 0 -829
0 -840 0 -11 0 -69 0 -130 1 -60 1 -117 1 -125 -1 -8 -1 -107 -1 -220 1 -113
1 -212 0 -220 -1 -8 -1 -35 0 -60 1 -25 1 -52 0 -60 0 -8 0 -62 0 -120 1 -58
1 -112 0 -120 -1 -8 -1 -35 0 -60 1 -25 1 -52 1 -60 -2 -47 -1 -1306 1 -1697
1 -253 -2 -459 -6 -456 -5 3 -4 -3 1 -13 5 -11 15 -41 21 -69 14 -59 69 -175
91 -192 8 -7 11 -13 6 -13 -6 0 -1 -7 10 -15 10 -8 16 -15 13 -15 -9 0 67 -80
76 -80 3 0 25 -13 48 -28 78 -52 164 -83 267 -97 3 0 10 -4 17 -8 6 -4 14 -4
17 1 4 7 66 8 91 2 6 -2 17 -1 25 2 8 3 44 11 80 18 36 6 92 25 125 42 61 31
184 117 185 130 0 7 60 98 71 108 9 9 48 105 54 136 6 30 13 531 16 1244 1
275 6 410 13 419 8 11 8 13 0 8 -16 -9 -15 215 0 225 8 6 8 8 0 8 -7 0 -11 20
-11 50 0 34 3 47 11 43 7 -5 7 -2 -1 8 -13 17 -13 216 1 238 6 9 5 12 -1 8
-14 -9 -12 126 1 135 8 5 7 8 0 8 -7 0 -11 16 -11 39 1 23 5 37 10 34 6 -4 7
-1 1 8 -13 21 -13 99 0 99 8 0 8 3 0 8 -14 10 -14 163 0 155 6 -4 5 1 -3 11
-13 15 -13 19 0 27 8 5 9 9 3 9 -13 0 -14 87 -1 107 4 6 3 14 -2 17 -11 7 -9
25 3 45 6 9 5 12 -1 8 -14 -9 -12 86 2 95 6 5 6 8 -2 8 -7 0 -13 9 -13 21 0
13 4 18 12 13 8 -5 8 -3 2 7 -13 20 -13 103 0 111 7 5 7 8 -1 8 -15 0 -17 36
-3 45 6 4 7 12 3 18 -12 19 -12 61 1 76 7 10 7 13 0 8 -7 -4 -11 17 -11 63 0
43 5 70 11 70 7 0 7 3 1 8 -15 10 -16 84 -1 75 8 -5 8 -3 0 8 -13 17 -13 58 0
78 6 9 5 12 -1 8 -7 -4 -10 22 -9 73 0 47 5 80 11 80 6 0 6 3 -1 8 -13 9 -14
223 -1 215 6 -4 7 -1 1 8 -5 8 -10 237 -11 509 -1 272 -2 585 -3 695 0 110 0
205 1 210 1 6 0 15 -1 20 -8 38 -8 45 1 45 6 0 7 5 3 11 -4 7 -9 33 -11 58 -7
91 -71 256 -113 288 -8 6 -15 15 -15 20 0 9 -47 58 -55 58 -3 0 -21 12 -40 27
-33 24 -160 91 -160 83 0 -2 -15 1 -32 6 -50 15 -65 18 -119 20 -27 2 -49 7
-49 13 0 7 -3 8 -8 1 -10 -14 -46 -19 -37 -6 3 6 1 11 -4 11 -6 0 -11 -4 -11
-10z"/>
<path d="M25514 31323 c5 -10 -3 -13 -31 -13 -72 -1 -240 -56 -251 -82 -2 -4
-9 -8 -15 -8 -7 -1 -27 -14 -46 -30 -19 -16 -38 -27 -43 -24 -5 3 -7 0 -6 -8
2 -7 -3 -12 -10 -10 -8 1 -11 -2 -8 -6 5 -9 -10 -31 -47 -72 -20 -21 -61 -104
-72 -142 -2 -5 -4 -10 -5 -13 -1 -3 -3 -8 -4 -12 -1 -5 -5 -14 -9 -20 -5 -7
-6 -13 -3 -13 2 0 1 -13 -4 -30 -5 -16 -5 -30 0 -30 4 0 6 -9 3 -20 -3 -11
-10 -20 -15 -20 -5 0 -6 -4 -3 -10 8 -12 8 -5417 0 -5430 -3 -5 -1 -11 5 -15
7 -4 7 -13 0 -26 -8 -14 -8 -19 1 -17 6 2 13 -12 15 -32 1 -19 5 -45 8 -56 6
-31 57 -136 72 -152 7 -6 16 -21 19 -32 3 -11 11 -20 16 -20 5 0 8 -6 6 -12
-1 -7 4 -12 11 -11 6 2 12 -2 12 -7 0 -10 40 -55 50 -55 3 -1 30 -17 60 -36
85 -54 215 -100 263 -93 9 1 17 -2 17 -7 0 -6 5 -7 11 -3 6 3 41 7 77 9 92 3
176 22 242 54 74 37 192 120 184 132 -3 5 2 12 10 15 9 3 16 12 16 20 0 7 6
17 13 21 18 12 73 121 87 173 7 24 12 70 12 102 1 39 4 55 12 51 8 -5 8 -3 0
8 -12 15 -14 103 -2 114 4 4 3 17 -1 29 -9 26 -8 137 2 153 4 6 3 14 -2 17
-10 6 -8 57 3 75 4 6 3 11 -2 11 -10 0 -8 42 3 59 3 6 2 11 -3 11 -8 0 -6 82
2 106 2 6 0 17 -4 25 -5 8 -4 19 2 26 6 7 7 13 2 13 -5 0 -9 25 -9 55 0 30 4
55 8 55 5 0 5 6 0 13 -11 18 -12 37 -2 37 6 0 6 7 1 18 -5 9 -6 26 -2 37 4 11
4 28 -1 37 -5 9 -6 19 -1 22 8 5 6 91 -2 113 -3 7 -1 15 4 18 7 4 6 13 0 25
-7 13 -7 21 0 25 8 5 7 11 -1 21 -6 8 -8 14 -3 14 5 0 9 18 9 40 0 22 -4 40
-8 40 -5 0 -5 5 -1 12 11 18 12 68 2 68 -5 0 -6 6 -1 13 10 16 11 107 0 107
-4 0 -5 4 -2 10 12 19 14 50 4 56 -6 4 -6 10 1 19 8 9 8 15 0 20 -6 3 -7 12
-3 18 11 18 10 100 -1 116 -8 11 -8 13 2 7 9 -6 11 -1 8 18 -3 14 -8 31 -12
37 -4 8 -3 9 4 5 14 -9 15 3 3 24 -6 8 -7 19 -3 25 11 17 9 139 -2 147 -8 6
-8 8 0 8 11 0 13 78 1 96 -3 6 -3 14 0 18 11 10 11 126 1 132 -5 3 -5 11 -1
17 12 18 11 187 0 180 -6 -4 -7 -1 -1 8 13 22 14 42 1 58 -7 8 -7 12 -1 8 7
-4 10 346 7 1216 -1 672 -3 1227 -3 1232 0 6 1 52 2 103 2 52 0 96 -5 99 -4 2
-4 9 -1 15 10 16 11 89 2 116 -4 13 -4 21 0 18 5 -3 7 12 5 32 -9 100 -9 122
1 122 6 0 5 4 -3 9 -11 7 -11 9 0 13 8 3 10 9 3 19 -5 8 -9 25 -10 39 -2 57
-29 139 -67 213 -23 42 -44 77 -49 77 -4 0 -8 4 -8 9 0 10 -55 71 -64 71 -3 0
-28 16 -55 35 -26 19 -55 35 -63 35 -8 0 -18 4 -23 9 -16 15 -102 40 -158 47
-29 4 -55 12 -59 18 -5 8 -8 7 -8 -2 0 -8 -5 -10 -12 -5 -19 11 -37 12 -44 2
-3 -6 -12 -5 -22 3 -12 10 -14 10 -8 1z"/>
<path d="M40647 31324 c-3 -3 -22 -7 -43 -9 -152 -17 -200 -32 -300 -97 -79
-51 -169 -158 -213 -253 -18 -37 -21 -50 -26 -100 -2 -22 -5 -40 -5 -40 -12 0
-20 -4359 -9 -4463 3 -29 3 -55 -1 -57 -3 -2 -5 -21 -3 -42 2 -46 5 -304 3
-318 -1 -5 -1 -32 0 -60 0 -27 3 -189 5 -360 3 -284 8 -351 32 -387 4 -7 8
-15 9 -18 10 -51 146 -230 175 -230 5 0 9 -4 9 -10 0 -5 6 -10 13 -10 7 0 22
-8 33 -17 37 -35 214 -100 228 -85 3 3 6 0 6 -6 0 -6 6 -9 13 -6 27 10 177 10
177 -1 0 -7 3 -6 8 1 4 5 34 16 67 23 33 8 92 31 132 51 76 40 183 125 183
146 0 6 6 17 14 23 16 14 77 137 96 194 6 21 9 44 6 52 -3 8 -1 17 3 20 5 3 5
21 1 40 -5 21 -4 35 1 35 6 0 5 8 -1 19 -7 14 -7 22 0 26 8 5 7 11 -1 21 -9
11 -9 14 0 14 9 0 9 5 1 20 -6 11 -7 20 -2 20 5 0 6 18 2 40 -4 22 -3 40 2 40
5 0 4 9 -2 20 -6 11 -7 20 -1 20 5 0 6 14 1 35 -4 20 -4 38 1 41 5 3 5 13 -1
25 -8 14 -7 19 1 19 9 0 9 3 0 14 -8 10 -9 16 -1 21 7 4 7 12 0 26 -6 11 -7
19 -1 19 5 0 6 14 1 34 -4 19 -4 40 1 47 4 7 3 19 -3 26 -7 9 -7 13 0 13 6 0
7 13 2 34 -4 19 -3 41 3 51 6 12 6 20 -1 24 -7 4 -7 12 -2 20 4 8 4 24 0 37
-5 12 -6 24 -3 28 8 8 7 232 -1 245 -4 6 -4 11 1 11 4 0 8 11 8 25 0 14 -4 25
-8 25 -5 0 -5 6 0 13 10 15 12 57 3 57 -4 0 -7 7 -7 15 0 8 3 12 7 10 10 -6 6
90 -5 98 -7 4 -7 10 0 15 13 9 15 123 2 115 -5 -3 -5 2 0 13 8 16 10 150 3
179 -1 6 -1 12 0 15 7 16 5 337 -2 347 -5 7 -5 14 2 18 8 5 8 10 0 20 -7 8 -7
16 -2 19 5 3 8 44 7 91 -2 62 0 83 8 78 9 -5 9 -3 1 8 -5 8 -9 24 -8 37 0 12
-4 22 -10 22 -7 0 -6 3 2 8 13 9 12 38 -1 59 -4 6 -3 14 2 17 12 8 9 75 -3 95
-6 9 -5 12 0 8 13 -7 12 793 0 812 -6 9 -5 12 0 8 6 -3 10 305 9 834 0 470 -4
839 -9 839 -5 0 -4 6 1 13 9 13 9 278 -1 303 -3 8 -2 14 2 14 4 0 7 20 7 45 0
25 -2 45 -5 45 -3 0 -5 37 -6 83 0 102 -6 139 -31 205 -3 9 -7 19 -7 22 -1 3
-16 30 -33 60 -93 160 -260 260 -455 274 -31 2 -61 7 -66 10 -5 3 -12 3 -15 0z"/>
<path d="M15 31260 c-3 -4 2 -10 10 -14 8 -3 15 0 15 7 0 8 4 7 11 -3 8 -12
10 -12 7 -1 -5 16 -35 24 -43 11z"/>
<path d="M9516 31263 c5 -5 12 -12 16 -18 4 -6 8 -2 8 8 0 9 -7 17 -17 17 -9
0 -12 -3 -7 -7z"/>
<path d="M107 31249 c-15 -9 -11 -14 30 -35 26 -13 54 -24 61 -24 12 0 51 -19
62 -30 3 -3 12 -6 20 -8 8 -1 24 -7 35 -12 18 -9 73 -31 85 -35 3 -1 31 -13
64 -28 32 -15 60 -27 62 -27 1 0 35 -15 76 -34 40 -18 102 -46 138 -61 36 -15
83 -35 105 -45 22 -10 85 -37 140 -60 55 -24 123 -53 152 -66 28 -13 54 -24
56 -24 3 0 39 -16 80 -35 41 -19 77 -35 80 -35 2 0 22 -8 43 -17 22 -9 41 -17
44 -18 3 -1 19 -8 35 -15 17 -7 32 -14 35 -15 3 0 21 -8 40 -17 54 -25 174
-81 180 -83 21 -7 50 -20 80 -33 19 -9 38 -17 43 -18 4 -1 10 -3 15 -4 4 -1
10 -2 15 -1 4 0 7 -3 7 -9 0 -5 7 -10 15 -10 9 0 27 -7 40 -16 14 -9 25 -13
25 -9 0 4 6 2 13 -4 8 -6 16 -9 19 -6 3 3 11 -1 18 -10 7 -8 19 -15 27 -15 7
0 31 -9 52 -20 21 -10 41 -16 45 -13 3 4 6 1 6 -5 0 -7 5 -12 11 -12 6 0 45
-16 86 -35 41 -19 79 -35 84 -35 5 0 9 -4 9 -10 0 -5 5 -10 11 -10 18 0 131
-82 177 -129 25 -25 41 -39 37 -31 -5 9 1 7 15 -5 43 -36 65 -58 50 -50 -8 5
1 -7 20 -25 19 -19 40 -34 45 -35 6 0 9 -8 9 -17 -1 -10 1 -17 5 -16 21 2 31
-4 31 -22 0 -12 10 -24 23 -30 12 -5 18 -9 13 -9 -5 -1 2 -11 16 -23 28 -26
138 -183 138 -198 0 -6 4 -10 9 -10 5 0 11 -8 14 -17 4 -10 17 -36 30 -58 45
-75 127 -235 121 -235 -3 0 3 -15 14 -32 22 -37 93 -213 102 -253 1 -5 7 -19
13 -30 6 -11 12 -24 14 -30 1 -5 22 -67 47 -137 24 -71 42 -128 39 -128 -3 0
0 -7 7 -15 7 -9 10 -18 7 -22 -3 -3 1 -19 9 -35 9 -17 17 -39 20 -49 2 -10 6
-29 9 -40 2 -12 9 -36 15 -54 6 -18 12 -41 14 -51 2 -11 9 -38 16 -62 6 -24
13 -55 15 -70 2 -15 11 -51 19 -79 8 -29 12 -53 9 -53 -3 0 0 -6 7 -14 6 -8
13 -27 14 -43 2 -15 6 -39 9 -53 4 -14 9 -36 12 -50 2 -14 10 -47 16 -75 25
-112 26 -124 15 -136 -8 -9 -8 -10 1 -5 15 8 24 -25 27 -93 0 -27 4 -47 7 -45
3 2 7 -11 7 -29 2 -33 9 -72 13 -72 1 0 3 -18 5 -40 1 -22 3 -40 4 -40 2 0 4
-9 6 -20 1 -11 5 -31 8 -45 4 -14 9 -45 12 -70 3 -25 7 -53 10 -63 3 -10 0
-25 -7 -33 -10 -12 -10 -15 2 -12 14 3 15 -3 4 -37 -6 -17 -5 -18 5 -5 10 13
11 11 7 -7 -3 -13 -1 -26 4 -29 5 -3 4 -14 -2 -26 -8 -15 -8 -19 0 -14 6 4 11
0 12 -11 1 -26 7 -72 14 -117 5 -25 3 -36 -3 -32 -6 3 -4 -7 4 -24 9 -16 15
-40 14 -52 -1 -13 -1 -25 0 -28 8 -21 6 -40 -3 -40 -9 0 -9 -2 -1 -8 16 -10
27 -85 11 -75 -7 4 -6 0 2 -10 7 -9 11 -24 7 -32 -3 -8 -2 -15 3 -15 4 0 9
-17 10 -37 1 -38 3 -50 15 -133 15 -103 16 -121 3 -114 -7 4 -4 -2 6 -13 9
-11 15 -22 13 -24 -3 -3 -1 -30 3 -61 5 -38 4 -61 -3 -69 -8 -9 -8 -10 2 -5
15 9 17 -25 2 -40 -8 -8 -6 -15 5 -24 18 -15 20 -66 3 -73 -8 -3 -6 -6 4 -6
19 -1 20 -21 3 -33 -6 -5 -5 -8 4 -8 8 0 11 -6 7 -16 -4 -9 -1 -23 5 -30 9
-11 8 -18 -2 -31 -10 -11 -10 -14 -2 -9 9 5 13 -2 13 -24 0 -22 -4 -29 -12
-25 -7 4 -5 0 5 -8 20 -17 22 -33 5 -40 -10 -4 -10 -6 0 -6 7 -1 10 -5 7 -11
-3 -5 -1 -10 6 -10 8 0 8 -4 -2 -16 -8 -10 -9 -18 -2 -22 5 -4 13 -29 15 -56
4 -30 2 -43 -3 -35 -5 8 -9 9 -9 4 0 -6 5 -16 12 -23 8 -8 8 -15 -3 -28 -8
-10 -9 -15 -2 -11 6 4 14 3 17 -2 4 -5 2 -13 -4 -16 -8 -5 -8 -11 0 -20 6 -7
11 -37 13 -66 1 -30 5 -56 8 -59 4 -3 10 -21 13 -41 3 -20 10 -47 15 -60 5
-13 9 -26 9 -29 4 -49 105 -268 145 -314 14 -16 26 -32 25 -35 -2 -22 5 -31
23 -31 11 0 17 -4 14 -10 -3 -5 0 -10 7 -10 9 0 9 -3 -2 -10 -13 -8 -12 -10 3
-10 12 0 16 -4 11 -12 -4 -7 -4 -10 1 -6 10 9 65 -19 65 -34 0 -6 3 -8 6 -5 4
4 14 -1 23 -11 9 -9 52 -35 96 -56 170 -84 186 -87 482 -85 138 0 254 4 258 7
4 4 10 7 13 8 75 7 268 106 311 158 7 9 17 14 21 11 5 -3 11 -1 15 5 4 6 10 8
15 5 4 -3 14 3 21 12 12 14 12 16 -1 9 -8 -4 -7 -1 3 7 14 11 15 16 5 21 -7 3
-3 4 8 2 16 -2 20 1 17 13 -2 9 12 34 31 56 20 22 36 46 36 53 0 6 5 12 12 12
6 0 9 3 5 6 -3 3 3 15 13 27 11 11 17 24 14 28 -2 4 0 10 5 13 9 6 53 126 49
136 -1 3 4 15 10 27 11 19 24 79 25 110 0 9 4 9 12 3 8 -7 12 -5 12 5 0 8 -4
15 -8 15 -4 0 -5 12 -2 28 3 15 6 35 7 45 0 9 3 17 7 17 4 0 5 10 1 22 -3 14
-2 19 6 14 7 -4 12 -2 12 3 0 6 -5 11 -11 11 -8 0 -8 4 -1 13 5 6 8 23 7 37
-1 14 3 29 9 33 8 6 7 10 -2 14 -10 4 -9 8 5 19 10 7 13 14 7 14 -6 0 -10 12
-8 28 6 42 16 153 18 190 0 17 3 32 6 32 5 0 10 59 13 152 1 25 6 44 11 41 4
-3 5 9 1 26 -5 26 -4 31 12 31 15 0 16 2 3 10 -8 5 -11 10 -6 10 5 0 4 6 -2
13 -12 15 2 57 19 57 7 0 5 8 -6 20 -12 13 -14 20 -5 20 6 0 10 6 7 13 -3 8
-1 20 3 27 5 8 4 22 -2 33 -7 14 -7 18 2 12 8 -5 11 -1 9 11 -2 11 0 25 5 33
5 7 5 16 0 20 -14 10 -16 34 -3 25 8 -5 10 1 7 20 -4 18 -1 26 9 26 9 0 11 5
6 13 -9 14 -11 77 -2 71 4 -2 7 9 7 24 0 61 6 102 14 102 5 0 4 9 -2 20 -6 11
-8 25 -5 31 6 9 9 31 20 134 2 22 6 56 9 75 3 19 8 53 11 75 2 22 7 51 9 65 3
13 7 39 8 58 1 18 6 36 10 38 4 3 8 10 8 15 0 6 -6 7 -12 3 -10 -6 -10 -5 -1
8 7 8 10 18 6 21 -3 4 -2 7 4 7 6 0 10 19 8 45 -1 27 2 42 8 38 6 -4 8 2 5 15
-5 16 -2 22 10 22 15 1 15 2 -1 14 -11 9 -14 17 -8 20 6 4 7 14 4 23 -4 11 -3
14 5 9 8 -5 11 2 8 23 -2 17 -1 31 3 31 3 0 6 15 5 32 -1 18 3 47 7 63 4 17
10 46 13 65 7 45 11 65 36 179 11 52 20 105 20 118 0 13 7 26 16 30 9 3 11 8
6 12 -6 3 -8 18 -5 33 4 19 10 25 22 21 12 -4 13 -2 3 4 -16 12 -5 96 11 86 6
-4 8 0 4 9 -7 19 41 212 54 216 5 2 7 8 4 13 -6 9 24 130 34 139 3 3 7 14 9
25 1 11 4 25 6 30 1 6 8 30 15 55 30 111 118 348 175 472 14 31 26 59 26 63 0
10 114 234 152 300 19 33 44 76 54 95 10 19 24 39 29 46 6 6 17 22 25 34 8 12
23 33 33 45 9 13 17 28 17 35 0 6 4 8 10 5 6 -3 10 -1 10 6 0 7 17 28 37 48
21 20 33 29 29 21 -7 -12 -7 -13 5 -2 12 11 12 14 -1 22 -11 7 -8 10 13 15 29
8 90 73 81 87 -3 4 1 5 9 2 8 -3 18 0 23 7 4 8 3 10 -4 5 -7 -4 -12 -2 -12 3
0 6 5 11 12 11 7 0 28 17 46 38 19 20 29 28 22 17 -7 -11 5 -2 26 20 21 23 62
56 89 74 68 44 313 161 338 161 6 0 18 7 28 16 9 8 26 16 38 17 11 1 21 5 21
9 0 4 3 7 8 6 4 -1 28 8 53 20 101 47 233 102 246 102 7 0 13 4 13 8 0 5 6 9
13 9 6 0 39 13 72 29 33 15 65 29 70 30 6 1 44 18 87 37 42 20 79 33 82 30 3
-4 6 -1 6 5 0 7 9 12 19 12 11 0 23 5 26 10 4 6 11 8 16 5 5 -4 9 -1 9 4 0 6
3 10 7 9 5 -1 26 7 48 17 22 10 43 19 47 19 3 1 10 4 14 9 4 4 16 7 26 7 10 0
18 5 18 11 0 5 4 8 9 4 5 -3 17 2 25 11 9 8 16 13 16 10 0 -4 160 63 235 99
17 8 59 26 95 41 36 14 85 35 110 46 25 10 54 23 65 28 41 17 111 48 155 68
25 11 74 32 110 46 36 15 79 34 97 42 17 8 33 14 36 14 2 0 21 7 42 16 24 10
34 19 28 25 -6 6 -20 4 -38 -5 -20 -11 -34 -12 -47 -5 -10 5 -18 6 -18 1 0 -5
-15 -9 -33 -9 -18 1 -37 -2 -42 -5 -6 -4 -25 -5 -43 -4 -17 1 -34 -3 -36 -8
-3 -7 -9 -5 -15 4 -7 10 -11 11 -11 2 0 -6 -3 -11 -7 -11 -5 1 -10 0 -13 -1
-14 -5 -229 -33 -262 -34 -10 0 -18 -4 -18 -7 0 -4 -14 -4 -30 1 -19 5 -28 5
-25 -1 6 -8 -30 -14 -62 -10 -6 1 -29 -3 -52 -8 -28 -6 -41 -5 -45 3 -3 7 -5
7 -5 -1 -1 -7 -8 -13 -16 -13 -8 0 -15 6 -15 13 0 6 -5 4 -11 -6 -9 -15 -13
-16 -27 -5 -12 10 -14 10 -8 0 6 -9 1 -11 -18 -8 -14 3 -28 0 -32 -5 -3 -6
-12 -5 -22 3 -12 10 -14 10 -8 1 4 -7 3 -13 -1 -13 -5 0 -15 6 -22 13 -11 10
-13 10 -7 0 4 -7 4 -13 -1 -14 -4 0 -26 -3 -48 -6 -22 -4 -55 -7 -72 -7 -18
-1 -33 -4 -33 -7 0 -3 -14 -4 -30 -3 -17 1 -33 -3 -36 -8 -4 -6 -10 -5 -15 3
-6 9 -9 10 -9 2 0 -6 -11 -10 -25 -8 -14 1 -25 -1 -25 -4 0 -4 -10 -7 -22 -8
-27 0 -116 -13 -138 -18 -8 -2 -46 -7 -85 -11 -38 -3 -72 -8 -74 -10 -2 -2
-11 2 -19 9 -11 8 -14 8 -9 0 4 -6 3 -14 -3 -18 -5 -3 -10 -1 -10 6 0 10 -3
10 -12 1 -16 -16 -41 -16 -32 1 6 9 4 9 -7 1 -8 -6 -23 -14 -33 -18 -17 -6
-17 -4 -5 11 13 17 12 17 -6 2 -23 -18 -54 -21 -73 -6 -9 7 -11 6 -6 -7 4 -12
0 -16 -16 -16 -14 0 -19 4 -14 13 4 6 -2 4 -13 -6 -21 -18 -21 -18 -26 0 -4
16 -5 16 -6 1 -1 -18 -8 -20 -78 -22 -17 -1 -29 -4 -26 -8 2 -5 -1 -8 -6 -8
-6 0 -11 6 -11 13 0 8 -3 8 -9 -2 -5 -8 -18 -12 -30 -8 -12 3 -21 2 -21 -3 0
-4 -19 -10 -42 -14 -68 -11 -205 -60 -313 -112 -55 -26 -103 -47 -107 -46 -5
1 -8 -1 -8 -6 0 -4 -17 -16 -37 -27 -21 -11 -40 -22 -43 -26 -3 -3 -27 -19
-55 -35 -27 -16 -57 -36 -65 -46 -8 -10 -24 -19 -35 -21 -27 -4 -46 -17 -40
-26 2 -5 -4 -16 -15 -26 -12 -10 -20 -13 -20 -7 0 7 -5 12 -12 12 -6 0 -9 -3
-5 -6 3 -4 -1 -13 -9 -21 -8 -8 -11 -19 -8 -25 4 -6 3 -8 -3 -5 -5 3 -20 -7
-32 -24 -17 -23 -26 -28 -36 -19 -10 8 -15 8 -21 -1 -4 -8 -3 -9 4 -5 7 4 12
2 12 -3 0 -6 -5 -11 -11 -11 -5 0 -8 -4 -5 -9 3 -5 -2 -15 -12 -22 -15 -13
-16 -12 -3 4 8 11 9 17 2 17 -6 0 -13 -11 -17 -25 -3 -14 -10 -23 -14 -20 -4
3 -11 -6 -14 -19 -5 -20 -34 -39 -56 -38 -3 0 -7 -8 -7 -19 -2 -23 -28 -51
-38 -41 -5 4 -5 2 -1 -5 8 -15 -24 -54 -37 -46 -6 3 -7 1 -3 -5 4 -7 2 -12 -4
-12 -6 0 -9 -4 -5 -9 3 -5 -1 -15 -8 -23 -42 -44 -179 -257 -251 -393 -12 -21
-27 -45 -33 -53 -7 -7 -13 -20 -13 -27 0 -8 -13 -40 -29 -72 -51 -102 -157
-343 -165 -378 -2 -5 -9 -23 -16 -40 -7 -16 -14 -34 -15 -40 0 -5 -7 -23 -14
-40 -7 -16 -15 -39 -17 -50 -2 -11 -8 -21 -14 -23 -6 -2 -8 -7 -6 -11 3 -4 -8
-46 -24 -94 -16 -48 -32 -97 -34 -109 -7 -35 -28 -91 -39 -105 -6 -9 -6 -13 1
-13 10 0 4 -28 -19 -85 -4 -11 -15 -51 -24 -90 -17 -76 -22 -97 -25 -105 -1
-3 -3 -9 -5 -15 -1 -5 -3 -12 -4 -15 -1 -3 -4 -16 -7 -30 -2 -14 -7 -32 -11
-40 -3 -8 -7 -19 -8 -25 -10 -59 -19 -95 -24 -95 -3 0 -6 -12 -7 -27 -1 -16
-4 -44 -8 -63 -4 -19 -7 -41 -8 -47 -1 -7 -5 -13 -10 -13 -5 0 -6 -5 -3 -11 4
-5 -1 -20 -12 -32 -11 -14 -12 -17 -2 -10 13 11 15 9 11 -17 -2 -18 -9 -27
-15 -23 -6 4 -8 0 -4 -10 6 -15 1 -52 -18 -147 -3 -14 -7 -38 -10 -55 -3 -16
-8 -43 -12 -60 -7 -36 -11 -64 -20 -132 -3 -32 -10 -50 -16 -46 -7 4 -8 0 -3
-12 10 -26 -4 -86 -18 -78 -6 4 -5 -1 3 -11 9 -10 11 -20 5 -24 -5 -4 -9 -23
-9 -42 0 -25 -5 -34 -14 -32 -11 2 -12 0 -4 -10 14 -18 9 -64 -7 -60 -11 2
-11 0 -2 -11 13 -16 7 -84 -9 -104 -7 -7 -6 -14 1 -18 6 -3 7 -12 3 -18 -4 -7
-8 -25 -9 -42 -4 -50 -14 -138 -20 -170 -3 -17 -7 -50 -9 -75 -4 -58 -4 -58
-15 -40 -6 9 -10 10 -10 3 0 -6 5 -15 10 -18 15 -9 8 -47 -10 -63 -8 -8 -10
-11 -3 -8 14 7 15 -52 1 -60 -5 -3 -4 -12 3 -20 6 -8 7 -14 2 -14 -5 0 -9 -21
-10 -47 -1 -25 -8 -50 -15 -54 -10 -7 -10 -9 0 -9 6 0 12 -9 12 -21 0 -11 -4
-18 -8 -15 -5 3 -8 -17 -7 -45 1 -38 -2 -49 -14 -49 -12 0 -13 -2 -4 -8 14 -9
14 -93 0 -85 -4 3 -5 -8 -1 -23 6 -21 4 -25 -7 -19 -11 7 -11 5 1 -10 11 -14
12 -19 3 -22 -9 -3 -11 -14 -7 -30 5 -18 3 -24 -5 -19 -6 4 -11 3 -11 -3 0 -5
5 -11 12 -13 7 -3 8 -10 3 -17 -7 -12 -15 -73 -18 -138 -1 -13 -3 -23 -6 -23
-4 0 -5 -22 -4 -50 0 -29 -3 -50 -9 -50 -7 0 -6 -5 1 -13 6 -8 9 -16 7 -18 -4
-4 -17 -102 -17 -129 -1 -8 -3 -22 -6 -30 -3 -8 -5 -27 -4 -42 2 -16 -1 -28
-6 -28 -4 0 -8 -17 -8 -39 -1 -52 -58 -164 -99 -196 -46 -35 -96 -52 -106 -35
-5 8 -9 8 -11 2 -5 -15 -79 -22 -79 -8 0 7 -3 7 -8 1 -15 -21 -218 7 -205 28
4 6 0 8 -10 4 -10 -4 -14 -2 -11 6 2 7 -6 17 -18 22 -13 6 -22 16 -20 23 1 7
-2 12 -7 12 -8 0 -34 52 -32 64 0 3 -6 20 -13 38 -7 18 -12 43 -11 56 1 12 -2
22 -7 22 -6 0 -8 6 -5 14 3 7 0 19 -6 26 -9 10 -9 11 1 6 6 -4 12 -2 12 3 0 6
-4 11 -8 11 -5 0 -7 18 -5 40 2 22 -1 40 -5 40 -5 0 -8 10 -7 23 1 12 -3 25
-9 29 -8 5 -7 8 2 8 6 0 12 7 12 16 0 8 -3 13 -7 11 -5 -3 -9 8 -10 24 -2 21
2 28 10 24 7 -4 5 -1 -4 7 -13 10 -14 17 -5 31 8 14 8 20 -4 27 -8 5 -12 10
-9 10 4 0 3 16 -1 35 -7 29 -5 35 9 35 14 1 13 3 -3 15 -11 8 -16 15 -12 15 5
0 3 6 -3 14 -9 11 -9 15 1 20 10 5 10 7 1 12 -7 3 -13 10 -13 15 0 6 5 7 12 3
7 -4 8 -3 4 5 -15 23 -16 63 -4 79 11 13 10 15 -3 10 -13 -5 -16 1 -14 33 1
21 -2 39 -8 39 -5 0 -4 7 3 15 9 11 9 15 1 15 -9 0 -9 5 0 21 8 15 8 19 0 15
-6 -4 -11 0 -12 11 0 10 -3 34 -5 53 -10 74 -10 85 0 92 7 5 7 8 -1 8 -8 0
-13 13 -13 33 0 17 -4 38 -9 46 -5 8 -6 24 -1 37 5 12 6 25 2 29 -4 4 -8 11
-8 16 -1 5 -2 10 -4 12 -1 1 -3 12 -4 24 -2 15 2 19 12 15 12 -4 11 0 -2 20
-9 13 -13 28 -9 31 3 4 0 7 -8 7 -10 1 -9 4 4 14 18 14 18 15 1 24 -16 9 -16
12 -4 28 9 11 10 15 3 10 -9 -5 -13 -1 -13 13 0 10 6 22 13 24 7 3 5 6 -5 6
-19 1 -20 24 -4 50 6 9 5 12 -2 7 -6 -3 -13 -2 -17 4 -3 5 -1 10 4 10 6 0 11
5 11 11 0 5 -4 7 -10 4 -14 -9 -12 19 3 34 10 10 8 11 -8 5 -20 -8 -20 -8 -1
21 10 17 15 27 11 23 -4 -4 -14 0 -21 10 -10 14 -10 21 2 40 11 17 11 22 2 20
-9 -2 -13 10 -13 37 0 22 -4 43 -9 47 -6 4 -4 13 4 23 7 9 9 15 4 14 -21 -4
-26 2 -14 16 7 8 8 15 3 15 -5 0 -9 8 -9 18 -1 16 -6 45 -19 112 -4 23 -10 63
-19 140 -2 14 2 31 7 38 8 9 7 12 -3 10 -9 -2 -15 6 -16 20 -1 12 -3 23 -4 25
-3 2 -7 27 -11 70 -2 15 -8 27 -14 27 -5 0 -1 7 9 15 12 9 15 15 7 15 -8 0
-11 8 -8 20 3 11 2 18 -3 15 -4 -3 -10 7 -13 20 -2 14 0 28 5 31 5 3 2 14 -8
25 -10 11 -15 28 -12 43 3 16 1 23 -5 19 -6 -4 -8 4 -5 20 3 15 1 28 -3 29 -5
2 -10 24 -11 49 -2 26 -6 45 -9 43 -3 -2 -13 34 -23 79 -9 45 -21 102 -27 127
-5 25 -11 52 -12 60 -1 8 -6 21 -10 28 -5 6 -6 12 -4 12 3 0 -1 19 -8 43 -6
23 -11 52 -10 64 1 12 -2 20 -5 18 -4 -3 -10 10 -14 28 -3 17 -13 55 -21 82
-8 28 -29 100 -46 160 -51 180 -109 353 -191 565 -23 58 -93 210 -147 320 -31
63 -41 80 -108 200 -32 56 -115 187 -131 205 -5 6 -17 24 -28 40 -10 17 -23
33 -29 37 -5 4 -6 8 -2 8 4 0 -6 15 -22 33 -17 17 -31 37 -31 42 0 6 -9 16
-20 23 -12 7 -19 16 -16 21 3 4 -4 13 -14 21 -10 8 -17 17 -14 22 3 4 -2 8
-11 8 -9 0 -13 5 -10 10 3 6 1 10 -5 10 -6 0 -8 5 -4 12 4 6 3 8 -3 5 -6 -4
-17 1 -24 10 -12 14 -12 16 1 9 16 -8 -42 46 -84 79 -58 45 -69 55 -60 55 5 0
-2 6 -16 13 -14 7 -25 18 -25 24 0 6 -4 15 -9 20 -5 5 -6 2 -1 -6 5 -9 3 -12
-6 -9 -8 3 -14 11 -14 19 -1 8 -6 13 -13 11 -7 -1 -12 2 -12 8 0 5 -7 10 -15
10 -8 0 -15 5 -15 10 0 6 -5 10 -10 10 -16 0 -120 72 -120 83 0 6 -3 8 -6 4
-3 -3 -29 9 -57 27 -104 65 -308 148 -439 177 -33 8 -54 18 -51 24 3 5 0 5 -7
-2 -9 -8 -19 -9 -32 -2 -10 5 -24 9 -31 8 -29 -4 -46 2 -43 14 1 6 1 9 -1 4
-3 -4 -10 -4 -15 -1 -7 5 -8 2 -3 -6 6 -10 4 -12 -9 -7 -10 4 -24 7 -32 7 -8
0 -14 8 -15 18 0 14 -2 14 -9 -3 -5 -11 -9 -15 -9 -8 -1 6 -10 9 -21 6 -13 -4
-26 1 -35 13 -15 18 -15 18 -9 0 6 -16 4 -17 -12 -8 -10 5 -22 10 -26 11 -5 1
-9 1 -10 1 -3 1 -133 11 -155 12 -7 1 -13 5 -13 9 0 4 -10 5 -22 1 -16 -4 -19
-2 -13 9 7 11 6 12 -6 3 -8 -6 -23 -10 -34 -8 -33 6 -108 16 -135 19 -14 1
-47 6 -75 11 -27 4 -56 7 -62 6 -7 -2 -13 1 -13 5 0 5 -12 8 -27 7 -16 -1 -32
1 -37 4 -10 5 -55 10 -128 14 -21 1 -38 7 -38 13 0 6 -7 12 -15 12 -8 0 -12
-4 -9 -9 3 -4 -2 -8 -11 -8 -9 0 -13 5 -9 11 4 8 0 8 -15 0 -15 -9 -21 -9 -21
-1 0 7 -8 9 -20 5 -13 -4 -31 0 -47 10 -14 9 -22 12 -19 6 9 -14 -17 -14 -31
0 -7 7 -13 7 -17 1 -4 -7 -17 -7 -36 -2 -37 11 -33 10 -71 10 -21 0 -28 4 -23
13 6 9 4 9 -7 1 -8 -6 -23 -10 -34 -7 -33 7 -65 11 -133 18 -36 3 -68 8 -71 9
-3 2 -31 7 -61 10 -80 9 -111 16 -133 27 -14 8 -18 8 -13 0 8 -12 -6 -15 -17
-4 -4 3 -27 6 -51 6 -37 -1 -44 2 -39 16 3 12 1 11 -11 -3 -15 -18 -21 -15
-16 9 1 6 -4 4 -11 -2 -18 -18 -42 -16 -35 2 6 18 6 18 -17 4z m6563 -639 c0
-5 -5 -10 -11 -10 -5 0 -7 5 -4 10 3 6 8 10 11 10 2 0 4 -4 4 -10z m-3555
-199 c-3 -3 -18 8 -33 23 l-27 29 32 -23 c18 -13 30 -26 28 -29z m3285 -65 c0
-2 -8 -10 -17 -17 -16 -13 -17 -12 -4 4 13 16 21 21 21 13z m500 -350 c0 -2
-8 -10 -17 -17 -16 -13 -17 -12 -4 4 13 16 21 21 21 13z"/>
<path d="M9497 31249 c7 -7 15 -10 18 -7 3 3 -2 9 -12 12 -14 6 -15 5 -6 -5z"/>
<path d="M7495 30990 c-3 -5 -1 -10 4 -10 6 0 11 5 11 10 0 6 -2 10 -4 10 -3
0 -8 -4 -11 -10z"/>
<path d="M6520 30499 c0 -5 5 -7 10 -4 6 3 10 8 10 11 0 2 -4 4 -10 4 -5 0
-10 -5 -10 -11z"/>
<path d="M1445 29561 c-6 -5 -39 -11 -75 -14 -36 -4 -80 -11 -98 -16 -18 -5
-34 -10 -37 -11 -38 -9 -152 -74 -167 -95 -4 -5 -13 -10 -20 -10 -7 0 -14 -9
-16 -20 -2 -11 -12 -29 -22 -40 -20 -22 -62 -138 -62 -172 0 -13 -5 -20 -11
-16 -6 4 -7 1 -1 -8 13 -21 14 -39 1 -39 -8 0 -8 -3 -2 -8 13 -8 14 -62 2 -55
-5 3 -4 -5 3 -17 10 -18 9 -24 -1 -31 -11 -7 -12 -9 -1 -9 9 0 13 -10 11 -27
-1 -16 1 -36 5 -45 4 -9 5 -22 1 -28 -3 -5 -2 -10 2 -10 5 0 15 -17 22 -37 18
-50 67 -128 116 -183 22 -25 29 -36 16 -25 l-24 20 12 -22 c6 -13 19 -23 27
-23 9 0 12 -5 8 -12 -5 -7 -3 -8 6 -3 8 5 18 1 27 -10 7 -11 13 -16 13 -12 0
4 27 -10 59 -32 47 -32 139 -76 181 -86 5 -2 26 -9 65 -24 11 -4 48 -14 82
-21 38 -9 59 -18 55 -24 -3 -6 2 -5 11 3 9 7 17 9 17 5 0 -5 15 -10 33 -11 58
-3 97 -8 97 -13 0 -5 167 -13 260 -13 46 1 116 6 215 16 12 1 19 -3 17 -11 -1
-8 2 -11 8 -7 6 3 7 12 3 18 -4 8 -1 7 9 -1 9 -7 19 -9 22 -4 3 5 15 12 26 15
11 3 18 1 14 -4 -3 -5 0 -9 5 -9 6 0 11 4 11 8 0 5 33 14 73 20 68 10 85 13
147 28 31 6 34 7 90 24 25 7 50 14 57 16 43 8 178 71 237 109 12 8 26 12 31 8
4 -5 6 -1 3 8 -4 9 2 20 13 27 10 7 19 19 19 27 0 8 5 15 10 15 6 0 10 9 10
21 0 11 4 17 10 14 6 -3 7 1 4 9 -3 9 -10 16 -15 16 -5 0 -9 8 -9 18 0 20 -68
130 -94 151 -9 7 -16 19 -16 26 0 17 -33 45 -53 45 -9 0 -17 5 -17 11 0 5 5 7
10 4 16 -10 11 1 -7 16 -11 10 -14 10 -9 2 12 -22 -3 -15 -52 25 -84 65 -199
142 -213 142 -5 0 -9 4 -9 9 0 4 -28 21 -61 36 -47 21 -58 30 -48 37 11 8 10
9 -3 4 -17 -5 -78 20 -89 37 -3 5 -8 7 -11 5 -6 -4 -111 44 -119 55 -3 5 -10
8 -15 8 -8 -1 -78 24 -229 82 -16 6 -34 12 -40 13 -5 1 -37 10 -70 19 -33 10
-61 17 -63 16 -1 -1 -16 6 -33 15 -18 9 -28 11 -24 4 6 -9 2 -9 -12 -1 -11 6
-23 7 -27 4 -3 -3 -6 -2 -6 3 0 5 -10 9 -22 10 -51 2 -88 9 -88 14 0 4 -8 7
-17 7 -95 -1 -134 4 -127 16 6 10 4 10 -7 0 -16 -15 -33 -17 -24 -3 8 12 2 13
-10 1z m1476 -618 c13 -16 12 -17 -3 -4 -10 7 -18 15 -18 17 0 8 8 3 21 -13z"/>
<path d="M8025 29559 c2 -3 -10 -7 -28 -8 -71 -3 -123 -11 -187 -27 -14 -4
-35 -6 -47 -6 -13 0 -20 -4 -17 -9 3 -5 -2 -9 -10 -9 -23 0 -24 0 -95 -26 -35
-13 -68 -21 -73 -18 -4 3 -8 1 -8 -5 0 -5 -15 -13 -32 -16 -18 -4 -37 -11 -43
-14 -16 -12 -109 -46 -117 -43 -5 1 -8 -3 -8 -10 0 -6 -3 -9 -6 -6 -3 3 -34
-9 -70 -28 -35 -18 -64 -30 -64 -27 0 3 -8 -1 -17 -9 -10 -9 -29 -19 -43 -23
-14 -4 -27 -11 -30 -15 -9 -13 -93 -50 -101 -44 -5 3 -9 -1 -9 -8 0 -13 -61
-58 -79 -58 -6 0 -14 -6 -18 -14 -4 -8 -15 -16 -23 -18 -8 -2 -17 -5 -20 -8
-24 -25 -110 -90 -119 -90 -6 0 -11 -4 -11 -10 0 -5 -6 -9 -12 -7 -7 1 -12 -4
-11 -10 3 -12 -9 -17 -29 -14 -4 0 -5 -5 -2 -13 3 -8 0 -17 -7 -22 -8 -5 -10
-3 -4 6 5 9 4 11 -3 6 -7 -4 -12 -12 -12 -18 0 -6 -17 -34 -38 -62 -69 -91
-102 -174 -79 -199 40 -43 60 -69 44 -58 -9 8 -20 12 -22 9 -7 -6 140 -88 159
-88 9 0 16 -7 16 -15 0 -9 9 -14 23 -13 12 0 66 -14 120 -31 119 -39 115 -38
255 -59 62 -10 111 -21 108 -25 -3 -4 0 -3 6 3 18 15 28 12 28 -7 0 -12 3 -14
8 -7 11 19 47 20 67 4 11 -8 16 -10 12 -3 -9 14 110 13 132 -1 10 -6 12 -5 7
2 -10 16 7 15 22 0 8 -8 15 -9 20 -3 10 14 152 19 152 6 0 -6 4 -11 10 -11 5
0 7 8 3 18 -5 13 -3 15 7 5 9 -8 19 -9 31 -3 12 7 20 6 24 0 4 -7 11 -7 18 -2
7 5 39 12 72 16 151 15 356 80 457 143 21 13 42 23 48 23 5 0 10 5 10 10 0 6
5 10 12 10 6 0 20 8 30 17 18 16 19 16 13 -3 -3 -10 1 -7 8 9 7 15 16 24 20
21 4 -4 7 -1 7 7 0 8 14 20 30 26 21 8 28 16 24 27 -3 9 -2 16 2 16 5 0 22 21
39 48 16 26 34 50 40 54 5 4 7 8 2 8 -4 0 -1 10 7 23 15 23 31 84 28 104 -2 6
2 14 6 17 5 3 6 24 2 46 -4 21 -4 37 1 35 4 -3 10 -1 14 5 3 5 1 10 -6 10 -9
0 -9 3 0 14 8 10 9 16 1 21 -5 3 -10 11 -10 16 0 6 4 8 9 4 5 -3 13 0 17 6 4
8 3 9 -5 5 -14 -9 -19 4 -25 81 -5 62 -21 103 -59 155 -11 15 -16 31 -12 39 6
9 3 11 -8 6 -10 -4 -23 3 -36 18 -10 14 -23 25 -28 25 -5 0 -16 9 -26 20 -9
11 -26 20 -37 20 -11 0 -20 4 -20 10 0 5 -12 13 -27 16 -16 4 -32 9 -38 12
-10 6 -21 8 -82 13 -18 2 -33 6 -33 9 0 9 -40 10 -63 1 -12 -5 -31 -5 -42 -1
-11 4 -30 4 -42 -1 -13 -5 -25 -4 -28 1 -3 5 -17 9 -30 8 -13 -1 -22 -5 -20
-9z m505 -863 c0 -2 -7 -7 -16 -10 -8 -3 -12 -2 -9 4 6 10 25 14 25 6z"/>
<path d="M8555 29430 c3 -5 8 -10 11 -10 2 0 4 5 4 10 0 6 -5 10 -11 10 -5 0
-7 -4 -4 -10z"/>
<path d="M925 29089 c-4 -6 -5 -12 -2 -15 2 -3 7 2 10 11 7 17 1 20 -8 4z"/>
<path d="M2950 28921 c0 -6 4 -13 10 -16 6 -3 7 1 4 9 -7 18 -14 21 -14 7z"/>
<path d="M6619 28893 c-13 -16 -12 -17 4 -4 9 7 17 15 17 17 0 8 -8 3 -21 -13z"/>
<path d="M3030 28620 c-9 -6 -10 -10 -3 -10 6 0 15 5 18 10 8 12 4 12 -15 0z"/>
<path d="M7655 28380 c-3 -6 1 -7 9 -4 18 7 21 14 7 14 -6 0 -13 -4 -16 -10z"/>
<path d="M3663 27035 c0 -8 4 -12 9 -9 5 3 6 10 3 15 -9 13 -12 11 -12 -6z"/>
<path d="M5385 24910 c-3 -5 -1 -10 4 -10 6 0 11 5 11 10 0 6 -2 10 -4 10 -3
0 -8 -4 -11 -10z"/>
</g>
</svg>
